<?xml version="1.0" encoding="utf-8"?>
<!-- Generator: Adobe Illustrator 16.0.4, SVG Export Plug-In . SVG Version: 6.00 Build 0)  -->
<!DOCTYPE svg PUBLIC "-//W3C//DTD SVG 1.1//EN" "http://www.w3.org/Graphics/SVG/1.1/DTD/svg11.dtd">
<svg version="1.1" id="Layer_1" xmlns="http://www.w3.org/2000/svg" xmlns:xlink="http://www.w3.org/1999/xlink" x="0px" y="0px"
	 width="200px" height="200px" viewBox="0 0 200 200" enable-background="new 0 0 200 200" xml:space="preserve">
<g>
	<path fill="#FFFFFF" d="M23.857,119.84c0.166,1.73,0.407,4.276,0.679,7.156c3.661,0.535,7.145,1.049,10.856,1.592
		c-0.866-3.897-0.237-4.876,3.189-5.077c1.795-0.104,2.993-0.256,2.273-2.122C35.262,120.88,29.867,120.388,23.857,119.84
		 M157.551,120.326c-0.166,1.153-0.301,2.08-0.44,3.033c3.281,0.461,7.37-1.244,8.257,3.453h9.428v-8.909
		C171.437,120.431,164.157,121.366,157.551,120.326 M43.81,108.168c-0.774-0.483-1.492-1.228-2.33-1.401
		c-2.071-0.426-3.635-0.939-2.802-3.628c0.124-0.404-0.628-1.396-1.186-1.636c-1.942-0.84-4.187-1.148-5.901-2.284
		c-1.313-0.871-2.001-2.689-2.962-4.085c1.559-0.561,3.108-1.527,4.677-1.566c1.466-0.031,2.988,0.857,4.424,1.479
		c1.479,0.648,2.717,1.592,3.942-0.609c0.296-0.531,2.406-0.044,3.68-0.035c1.221,0.004,2.44,0,3.668,0
		c0.061-0.43,0.128-0.861,0.191-1.292c-3.158-1.605-6.323-3.193-9.47-4.808c-1.938-0.992-3.975-2.092-3.539-4.689
		c0.365-2.167-1.001-3.055-2.33-4.007c-2.003-1.444-4.142-2.697-6.143-4.146c-1.947-1.409-3.385-3.611-2.134-5.699
		c1.44-2.388,3.859-1.919,5.997-0.2c1.888,1.519,3.839,2.993,5.921,4.229c1.055,0.626,2.19,2.94,3.874,0.414
		c0.183-0.266,2.468,0.474,3.438,1.205c3.855,2.889,7.57,5.96,11.339,8.966c0.226-0.191,0.449-0.378,0.676-0.57
		c-0.424-0.622-0.807-1.279-1.27-1.871c-1.207-1.527-3.915-2.706-1.003-5.138c0.191-0.161-0.591-1.753-1.161-2.505
		c-2.044-2.706-5.181-4.903-3.894-9.196c4.718-0.605,6.807,2.832,9.114,6.247c3.302-3.358,4.598-0.174,6.456,1.667
		c0.724,0.722,1.9,0.987,2.873,1.466c0.252-0.378,0.507-0.765,0.757-1.144c-2.949-4.189-6.018-8.3-8.754-12.629
		c-0.618-0.975-0.057-2.688-0.043-4.063c0.012-1.148,0.306-2.388-0.051-3.406c-0.467-1.348-1.412-2.549-2.212-3.768
		c-1.792-2.723-2.682-5.538-0.989-8.917c3.239,0.343,6.308,0.469,7.371,4.837c0.599,2.454,1.871,4.876,4.866,6.034
		c3.839,1.488,4.076,5.79,5.777,8.914c1.238,2.275,2.21,4.69,3.4,6.982c0.271,0.522,0.966,0.827,2.075,0.766
		c-0.276-0.766-0.579-1.522-0.82-2.297c-0.565-1.854-1.751-3.746,0.939-5.164c0.429-0.226,0.285-1.957,0.072-2.915
		c-0.761-3.397-2.547-6.816,0.667-10.066c5.712,1.627,4.068,7.065,5.658,10.911c5.942-1.736,2.66,5.381,6.477,6.434
		c-0.195-3.577-0.191-6.983-0.615-10.333c-0.463-3.65-1.455-6.956,1.271-10.541c1.403-1.849,0.961-5.342,0.815-8.061
		c-0.17-3.102,1.358-5.056,3.337-7.096c3.132,2.053,4.807,4.42,4.396,8.274c-0.349,3.237-0.642,6.573,2.334,9.318
		c0.985,0.905,0.851,3.328,0.757,5.034c-0.213,3.833-0.801,7.644-1.046,11.476c-0.053,0.858,0.679,1.763,1.688,2.415
		c0.348-2.201,0.611-4.419,1.067-6.59c0.275-1.318,0.349-1.027,1.88-0.436c0.688,0.266,2.401-0.574,2.749-1.322
		c0.627-1.375,0.323-3.167,0.889-4.595c0.743-1.853,1.896-3.562,3.062-5.202c0.112-0.148,2.228,0.6,2.248,0.991
		c0.136,2.497,0.092,5.034-0.204,7.518c-0.151,1.34-1.092,2.597,1.14,3.093c0.278,0.061,0.366,1.784,0.24,2.697
		c-0.214,1.604-0.797,3.167-0.94,4.772c-0.052,0.596,0.705,1.266,1.088,1.897c0.748-0.505,1.884-0.848,2.18-1.549
		c1.514-3.606,2.85-7.291,4.181-10.972c0.869-2.402,1.661-4.72,5.042-4.05c0.427,0.083,1.248-0.774,1.549-1.366
		c1.097-2.205,1.983-4.524,3.097-6.725c1.366-2.715,5.038-4.934,6.465-4.055c1.44,0.887,1.522,5.803,0.113,8.04
		c-0.543,0.856-1.21,1.644-1.68,2.54c-1.156,2.197-2.323,3.998-0.922,7.052c0.792,1.723-1.349,5.034-2.61,7.387
		c-1.278,2.389-3.185,4.433-4.637,6.743c-0.492,0.771-0.444,1.879-0.636,2.832c0.296,0.065,0.592,0.14,0.883,0.209
		c0.762-0.961,1.506-1.945,2.293-2.885c0.739-0.878,1.531-1.714,2.484-2.771c0.752,0.857,1.292,1.479,1.971,2.257
		c0.408-0.352,0.848-0.661,1.196-1.052c1.505-1.692,2.784-3.672,4.546-5.021c1.062-0.809,2.862-0.656,4.333-0.936
		c-0.092,1.662,0.33,3.611-0.392,4.929c-1.166,2.11-3.094,3.802-4.838,5.838c2.21,1.406,2.185,2.767,0.266,4.464
		c-2.031,1.792-1.91,1.922-0.604,3.819c3.089-2.797,6.199-5.516,9.188-8.361c3.098-2.95,3.725-3.042,7.009-0.405
		c2.832-2.076,5.652-4.146,8.478-6.199c0.541-0.392,1.205-1.087,1.689-0.992c1.719,0.331,3.79,0.536,4.889,1.627
		c0.543,0.535-0.294,3.375-1.305,4.381c-2.227,2.228-5.029,3.863-7.429,5.933c-0.711,0.614-0.762,1.932-1.284,2.833
		c-0.743,1.283-1.381,2.897-2.537,3.628c-4.098,2.61-8.405,4.912-12.677,7.348c2.133,4.242,6.46-3.028,7.935,2.141
		c4.194-1.327,7.902-4.959,12.837-2.045c-0.373,7.444-7.685,5.382-10.34,7.583c-0.579,2.146-0.547,3.799-1.357,4.599
		c-1.052,1.039-2.779,1.405-4.21,2.062c0.143,0.466,0.291,0.932,0.436,1.393c3.763-0.839,7.525-1.662,11.274-2.545
		c1.192-0.273,2.465-1.214,3.486-0.975c1.795,0.422,3.432,1.522,5.142,2.346c-0.109,0.282-0.232,0.569-0.341,0.856
		c3.562-0.53,7.123-1.127,10.698-1.566c1.061-0.131,2.259-0.061,3.231,0.322c3.346,1.313,3.534,2.21,1.046,4.737
		c-1.492,1.515-2.885,2.671-0.015,4.368c0.973,0.57,1.507,2.427,1.627,3.754c0.235,2.736,0.062,5.503,0.074,8.262
		c0.006,0.801-0.109,1.648,0.126,2.389c1.854,5.816,0.679,8.153-5.237,10.171c-8.975,3.067-18.141,3.505-27.476,2.156
		c-2.019-0.291-4.111-0.043-6.939-0.043c0.335,3.765,0.806,7.343,0.883,10.941c0.025,1.087-0.738,2.806-1.623,3.22
		c-7.139,3.375-14.752,5.038-22.6,5.802c-5.643,0.55-11.25,1.654-16.905,1.895c-6.309,0.265-12.642-0.176-18.967-0.313
		c-2.053-0.054-4.126,0.012-6.158-0.256c-10.382-1.366-20.817-2.494-31.112-4.377c-6.58-1.205-8.157-5.147-6.325-12.693
		c0.254-1.055,0.335-2.159,0.531-3.499c-5.827,0.218-11.289,0.696-16.738,0.552c-6.619-0.179-13.123-1.412-19.239-4.124
		c-2.823-1.244-4.25-3.263-4.148-6.647c0.143-4.411-0.443-8.84-0.468-13.268c-0.009-1.079,0.683-2.594,1.542-3.168
		c2.201-1.47,2.138-2.779,0.183-4.142c-2.006-1.396-1.275-2.148,0.204-3.467c3.698-3.289,7.642-0.853,11.396-0.597
		c1.929,0.127,2.958-0.335,4.611-1.135c2.182-1.062,5.283-0.574,7.928-0.252c2.963,0.36,5.854,1.274,8.777,1.952
		C43.516,108.855,43.665,108.512,43.81,108.168"/>
</g>
</svg>
