<?xml version="1.0" encoding="utf-8"?>
<!-- Generator: Adobe Illustrator 16.0.4, SVG Export Plug-In . SVG Version: 6.00 Build 0)  -->
<!DOCTYPE svg PUBLIC "-//W3C//DTD SVG 1.1//EN" "http://www.w3.org/Graphics/SVG/1.1/DTD/svg11.dtd">
<svg version="1.1" id="Layer_1" xmlns="http://www.w3.org/2000/svg" xmlns:xlink="http://www.w3.org/1999/xlink" x="0px" y="0px"
	 width="200px" height="200px" viewBox="0 0 200 200" enable-background="new 0 0 200 200" xml:space="preserve">
<g>
	<path fill="#FFFFFF" d="M92.775,132.412h17.245v-0.734c0-5.659,0-11.324,0-16.987c0-2.419,0.029-4.834,0.021-7.249
		c-0.004-0.982-0.358-1.85-1.027-2.576c-0.686-0.747-1.531-1.246-2.485-1.54c-3.277-0.999-6.594-1.031-9.885-0.11
		c-2.9,0.812-3.868,2.212-3.868,5.209v23.254V132.412z M64.019,85.323h2.046v-4.607h6.179v-8.104h5.546v-7.55
		c0.746,0,1.439,0.02,2.126-0.013c0.183-0.009,0.466-0.148,0.516-0.293c1.43-4.153,4.368-6.984,8.037-9.172
		c2.455-1.457,5.075-2.535,7.85-3.212c0.553-0.136,0.808-0.346,0.71-0.92c-0.031-0.186-0.004-0.38-0.004-0.616h7.833
		c0.021,0.087,0.062,0.19,0.07,0.302c0.048,1.036,0.048,1.027,1.071,1.321c4.235,1.197,8.141,3.03,11.402,6.061
		c1.824,1.701,3.207,3.707,4.012,6.081c0.124,0.359,0.281,0.486,0.648,0.47c0.673-0.024,1.341-0.008,2.08-0.008V72.6h5.482v8.055
		h6.184v4.668h2.064v26.085h24.876v2.567h2.77v3.79h26.089v21.615h2.553v7.777c-0.216,0-0.421,0-0.628,0
		c-7.06,0.008-14.118,0.021-21.169,0.028c-5.614,0.005-11.221-0.062-16.826,0.045c-3.657,0.067-7.232-0.449-10.824-0.998
		c-3.975-0.603-7.967-1.151-11.963-1.444c-5.97-0.446-11.955-0.769-17.94-0.914c-6.778-0.172-13.569-0.172-20.354-0.099
		c-5.251,0.062-10.511,0.257-15.751,0.579c-6.844,0.429-13.681,0.998-20.511,1.593c-3.31,0.29-6.603,0.771-9.905,1.16
		c-0.227,0.024-0.461,0.05-0.688,0.05c-13.076,0-26.146,0-39.221,0H7.768v-7.731h2.516v-21.615h26.085v-3.811h2.752v-2.547h24.898
		V85.323z"/>
</g>
</svg>
