<?xml version="1.0" encoding="utf-8"?>
<!-- Generator: Adobe Illustrator 16.0.4, SVG Export Plug-In . SVG Version: 6.00 Build 0)  -->
<!DOCTYPE svg PUBLIC "-//W3C//DTD SVG 1.1//EN" "http://www.w3.org/Graphics/SVG/1.1/DTD/svg11.dtd">
<svg version="1.1" id="Layer_1" xmlns="http://www.w3.org/2000/svg" xmlns:xlink="http://www.w3.org/1999/xlink" x="0px" y="0px"
	 width="135.374px" height="102.721px" viewBox="0 0 135.374 102.721" enable-background="new 0 0 135.374 102.721"
	 xml:space="preserve">
<g>
	<defs>
		<rect id="SVGID_1_" x="13.476" y="8" width="110.341" height="84"/>
	</defs>
	<clipPath id="SVGID_2_">
		<use xlink:href="#SVGID_1_"  overflow="visible"/>
	</clipPath>
	<path clip-path="url(#SVGID_2_)" fill="#FFFFFF" d="M63.82,56.21h10.191v-0.431c0-3.349,0-6.695,0-10.042
		c0-1.428,0.016-2.855,0.012-4.285c-0.003-0.579-0.209-1.09-0.606-1.522c-0.405-0.44-0.906-0.736-1.469-0.909
		c-1.939-0.592-3.898-0.613-5.841-0.067c-1.717,0.481-2.287,1.309-2.287,3.081v13.743V56.21z M46.825,28.383h1.209v-2.724h3.651
		v-4.787h3.279v-4.463c0.44,0,0.849,0.013,1.257-0.007c0.107-0.006,0.273-0.087,0.303-0.171c0.848-2.457,2.583-4.13,4.75-5.42
		c1.451-0.866,3.002-1.499,4.641-1.902c0.328-0.078,0.476-0.204,0.42-0.543c-0.017-0.11-0.003-0.224-0.003-0.363h4.631
		c0.012,0.051,0.036,0.114,0.039,0.177c0.026,0.614,0.026,0.609,0.633,0.78c2.504,0.71,4.813,1.791,6.738,3.583
		c1.078,1.006,1.896,2.191,2.373,3.593c0.071,0.211,0.166,0.289,0.383,0.28c0.397-0.016,0.795-0.005,1.229-0.005v4.453h3.241v4.76
		h3.652v2.76h1.221v15.418h14.699v1.518h1.638v2.239h15.42v12.773h1.506v4.598c-0.126,0-0.247,0-0.369,0
		c-4.17,0.006-8.343,0.012-12.513,0.016c-3.315,0.006-6.629-0.037-9.943,0.025c-2.162,0.042-4.272-0.264-6.399-0.589
		c-2.344-0.356-4.701-0.679-7.066-0.854c-3.528-0.262-7.065-0.451-10.603-0.541c-4.008-0.1-8.02-0.102-12.028-0.057
		c-3.104,0.037-6.21,0.15-9.309,0.344c-4.045,0.251-8.085,0.59-12.123,0.94c-1.957,0.171-3.901,0.454-5.852,0.686
		c-0.136,0.016-0.272,0.028-0.408,0.028c-7.726,0.002-15.452,0.002-23.176,0.002h-0.363v-4.572h1.485V47.581h15.417v-2.25h1.627
		v-1.506h14.712V28.383z"/>
	<path clip-path="url(#SVGID_2_)" fill="#FFFFFF" d="M23.258,89.422c0.736-2.283,1.449-4.497,2.162-6.711h1.693
		c-0.278,0.813-0.544,1.6-0.815,2.384c-0.749,2.167-1.504,4.33-2.244,6.498c-0.08,0.23-0.177,0.337-0.432,0.314
		c-0.359-0.034-0.808,0.086-1.057-0.089c-0.236-0.166-0.268-0.627-0.382-0.96c-0.619-1.801-1.235-3.603-1.881-5.489
		c-0.209,0.604-0.394,1.135-0.577,1.665c-0.524,1.532-1.053,3.061-1.568,4.596c-0.068,0.212-0.162,0.29-0.383,0.277
		c-0.363-0.025-0.82,0.111-1.067-0.062c-0.246-0.172-0.287-0.641-0.407-0.982c-0.9-2.598-1.797-5.196-2.695-7.793
		c-0.037-0.105-0.073-0.213-0.127-0.372c0.562,0,1.092-0.012,1.619,0.013c0.081,0.004,0.184,0.173,0.221,0.283
		c0.653,2.005,1.297,4.014,1.944,6.021c0.033,0.105,0.071,0.21,0.138,0.4c0.099-0.276,0.172-0.471,0.236-0.668
		c0.631-1.914,1.266-3.831,1.887-5.752c0.081-0.253,0.201-0.346,0.46-0.322c0.249,0.024,0.504,0.02,0.754,0.001
		c0.225-0.017,0.309,0.08,0.376,0.287c0.671,2.06,1.355,4.116,2.037,6.173C23.171,89.206,23.204,89.28,23.258,89.422"/>
	<path clip-path="url(#SVGID_2_)" fill="#FFFFFF" d="M71.31,82.695c0.525,0,1.027-0.015,1.526,0.012
		c0.112,0.006,0.25,0.136,0.321,0.244c0.803,1.233,1.598,2.476,2.396,3.713c0.06,0.096,0.126,0.188,0.21,0.312
		c0.065-0.087,0.123-0.15,0.167-0.222c0.816-1.267,1.635-2.532,2.442-3.804c0.116-0.184,0.236-0.271,0.463-0.261
		c0.466,0.021,0.934,0.006,1.421,0.006v9.114h-1.601V85.45c-0.025-0.01-0.053-0.019-0.08-0.026c-0.929,1.385-1.857,2.77-2.83,4.218
		c-0.954-1.427-1.882-2.811-2.863-4.276v6.442H71.31V82.695z"/>
	<path clip-path="url(#SVGID_2_)" fill="#FFFFFF" d="M58.479,85.439c-0.927,1.38-1.853,2.762-2.819,4.204
		c-0.957-1.434-1.886-2.821-2.864-4.289v6.454h-1.58v-9.111c0.534,0,1.066-0.012,1.598,0.011c0.09,0.005,0.191,0.141,0.255,0.236
		c0.783,1.207,1.559,2.418,2.339,3.627c0.085,0.133,0.176,0.262,0.283,0.424c0.596-0.924,1.171-1.816,1.744-2.706
		c0.297-0.462,0.584-0.931,0.899-1.378c0.074-0.107,0.242-0.2,0.371-0.206c0.478-0.025,0.957-0.011,1.458-0.011v9.113h-1.577v-6.349
		C58.552,85.453,58.515,85.446,58.479,85.439"/>
	<path clip-path="url(#SVGID_2_)" fill="#FFFFFF" d="M110.353,69.553h1.586v9.155c-0.414,0-0.824,0.018-1.229-0.011
		c-0.105-0.008-0.219-0.144-0.297-0.245c-1.523-1.954-3.04-3.915-4.558-5.873c-0.07-0.089-0.142-0.172-0.268-0.326v6.437h-1.589
		V69.54c0.47,0,0.926-0.014,1.378,0.01c0.097,0.006,0.202,0.131,0.274,0.223c1.443,1.857,2.884,3.719,4.324,5.578
		c0.104,0.134,0.21,0.266,0.377,0.479V69.553z"/>
	<path clip-path="url(#SVGID_2_)" fill="#FFFFFF" d="M63.316,74.057c0.933,0,1.823,0.039,2.71-0.012
		c0.874-0.048,1.457-0.648,1.491-1.417c0.038-0.828-0.404-1.448-1.284-1.532c-0.958-0.09-1.931-0.02-2.917-0.02V74.057z
		 M61.711,69.474c1.742,0.067,3.469,0.053,5.175,0.228c1.087,0.11,1.884,0.808,2.164,1.928c0.274,1.09,0.123,2.109-0.747,2.893
		c-0.356,0.318-0.818,0.519-1.261,0.79c0.773,1.085,1.575,2.212,2.417,3.396c-0.653,0-1.232,0.01-1.808-0.01
		c-0.094-0.003-0.2-0.132-0.269-0.228c-0.649-0.912-1.284-1.832-1.942-2.738c-0.082-0.111-0.267-0.203-0.409-0.21
		c-0.559-0.022-1.117-0.009-1.724-0.009v3.174h-1.597V69.474z"/>
	<path clip-path="url(#SVGID_2_)" fill="#FFFFFF" d="M83.914,87.24c0,0.114-0.006,0.229,0.001,0.343
		c0.1,1.805,1.789,3.193,3.532,2.9c1.31-0.219,2.258-1.115,2.549-2.404c0.307-1.366-0.202-2.797-1.285-3.518
		c-1.018-0.679-2.104-0.748-3.178-0.177C84.406,84.983,83.94,86.001,83.914,87.24 M86.956,92c-2.715-0.012-4.768-2.054-4.759-4.74
		c0.009-2.695,2.109-4.733,4.858-4.719c2.698,0.015,4.742,2.062,4.727,4.734C91.767,89.967,89.677,92.012,86.956,92"/>
	<path clip-path="url(#SVGID_2_)" fill="#FFFFFF" d="M39.45,87.21c0.914,0,1.792,0.049,2.665-0.013
		c0.994-0.069,1.548-0.669,1.546-1.532c-0.003-0.859-0.525-1.388-1.547-1.475c-0.679-0.059-1.367-0.03-2.05-0.037
		c-0.199-0.003-0.399,0-0.613,0V87.21z M39.437,88.653v3.155h-1.581v-9.086c0.073-0.009,0.16-0.027,0.246-0.027
		c1.314-0.001,2.629-0.024,3.943,0.013c0.493,0.013,1.002,0.106,1.469,0.268c1.11,0.382,1.766,1.311,1.791,2.428
		c0.032,1.359-0.508,2.278-1.639,2.787c-0.153,0.068-0.313,0.125-0.515,0.207c0.811,1.141,1.605,2.258,2.442,3.434
		c-0.648,0-1.226,0.009-1.803-0.008c-0.086-0.003-0.188-0.113-0.247-0.196c-0.65-0.911-1.297-1.825-1.935-2.745
		c-0.117-0.169-0.242-0.238-0.447-0.233C40.601,88.662,40.042,88.653,39.437,88.653"/>
	<path clip-path="url(#SVGID_2_)" fill="#FFFFFF" d="M95.277,87.192c0.059,0.015,0.082,0.024,0.104,0.024
		c0.524,0.002,1.05,0.012,1.576,0.002c0.42-0.008,0.849,0.003,1.26-0.07c0.807-0.145,1.276-0.737,1.261-1.509
		c-0.015-0.768-0.479-1.341-1.312-1.406c-0.948-0.073-1.908-0.018-2.889-0.018V87.192z M93.664,82.695
		c1.015,0,2.004-0.013,2.997,0.005c0.692,0.01,1.398-0.015,2.08,0.103c1.425,0.25,2.266,1.191,2.378,2.532
		c0.119,1.409-0.57,2.459-1.955,2.982c-0.051,0.019-0.104,0.039-0.204,0.073c0.812,1.142,1.606,2.259,2.446,3.44
		c-0.651,0-1.237,0.008-1.823-0.011c-0.083-0.003-0.177-0.125-0.238-0.21c-0.642-0.902-1.285-1.806-1.914-2.717
		c-0.122-0.181-0.256-0.252-0.477-0.246c-0.546,0.018-1.092,0.006-1.69,0.006v3.161h-1.6V82.695z"/>
</g>
<polygon fill="#FFFFFF" points="62.539,82.71 62.539,91.805 69.348,91.805 69.348,90.385 64.176,90.385 64.176,87.932 
	68.688,87.932 68.688,86.513 64.169,86.513 64.169,84.139 69.293,84.139 69.293,82.71 "/>
<g>
	<defs>
		<rect id="SVGID_3_" x="13.476" y="8" width="110.341" height="84"/>
	</defs>
	<clipPath id="SVGID_4_">
		<use xlink:href="#SVGID_3_"  overflow="visible"/>
	</clipPath>
	<path clip-path="url(#SVGID_4_)" fill="#FFFFFF" d="M112.637,88.193c-0.522-1.206-1.026-2.371-1.563-3.62
		c-0.535,1.249-1.035,2.418-1.55,3.62H112.637z M106.328,91.833c0.484-1.112,0.943-2.165,1.402-3.22
		c0.824-1.891,1.654-3.78,2.474-5.674c0.097-0.226,0.203-0.343,0.469-0.319c0.386,0.034,0.86-0.11,1.136,0.069
		c0.273,0.179,0.354,0.66,0.508,1.015c1.139,2.599,2.274,5.2,3.412,7.802c0.04,0.091,0.071,0.187,0.125,0.325
		c-0.542,0-1.051,0.012-1.557-0.01c-0.084-0.003-0.191-0.136-0.237-0.234c-0.252-0.571-0.481-1.157-0.743-1.727
		c-0.046-0.102-0.206-0.211-0.314-0.213c-1.277-0.014-2.558-0.004-3.836-0.014c-0.196-0.002-0.282,0.077-0.352,0.244
		c-0.232,0.568-0.484,1.133-0.714,1.703c-0.073,0.185-0.166,0.265-0.376,0.258C107.28,91.821,106.837,91.833,106.328,91.833"/>
	<path clip-path="url(#SVGID_4_)" fill="#FFFFFF" d="M31.647,84.571c-0.538,1.255-1.036,2.421-1.547,3.614h3.107
		C32.689,86.985,32.187,85.821,31.647,84.571 M36.434,91.833c-0.55,0-1.041,0.013-1.53-0.01c-0.097-0.008-0.227-0.135-0.271-0.236
		c-0.252-0.562-0.491-1.13-0.715-1.705c-0.076-0.192-0.183-0.248-0.381-0.247c-1.258,0.009-2.515,0.009-3.771,0
		c-0.205-0.001-0.303,0.065-0.377,0.252c-0.235,0.581-0.484,1.159-0.744,1.729c-0.041,0.093-0.162,0.205-0.25,0.209
		c-0.479,0.019-0.959,0.009-1.488,0.009c0.276-0.641,0.536-1.245,0.799-1.848c1.027-2.353,2.059-4.703,3.078-7.059
		c0.103-0.237,0.226-0.328,0.481-0.306c0.384,0.033,0.852-0.099,1.132,0.08c0.265,0.17,0.341,0.645,0.492,0.989
		c1.128,2.582,2.255,5.164,3.382,7.746C36.319,91.55,36.365,91.666,36.434,91.833"/>
	<path clip-path="url(#SVGID_4_)" fill="#FFFFFF" d="M97.624,71.428c-0.539,1.26-1.037,2.425-1.542,3.606h3.101
		C98.664,73.834,98.166,72.677,97.624,71.428 M102.413,78.708c-0.549,0-1.06,0.009-1.569-0.01c-0.074-0.003-0.175-0.124-0.213-0.214
		c-0.256-0.583-0.506-1.172-0.743-1.766c-0.07-0.176-0.169-0.234-0.357-0.232c-1.268,0.007-2.533,0.009-3.803,0
		c-0.191-0.002-0.284,0.068-0.354,0.238c-0.238,0.579-0.494,1.15-0.729,1.732c-0.074,0.183-0.163,0.266-0.373,0.259
		c-0.444-0.018-0.889-0.006-1.376-0.006c0.044-0.12,0.071-0.213,0.109-0.303c1.254-2.874,2.512-5.745,3.758-8.622
		c0.103-0.24,0.231-0.325,0.482-0.304c0.385,0.029,0.852-0.098,1.132,0.081c0.266,0.17,0.34,0.645,0.49,0.987
		c1.135,2.591,2.266,5.181,3.396,7.772C102.312,78.434,102.353,78.548,102.413,78.708"/>
	<path clip-path="url(#SVGID_4_)" fill="#FFFFFF" d="M30.921,75.052c-0.527-1.221-1.033-2.392-1.564-3.621
		c-0.53,1.234-1.033,2.41-1.551,3.621H30.921z M34.146,78.71c-0.543,0-1.042,0.01-1.54-0.012c-0.087-0.004-0.205-0.124-0.247-0.219
		c-0.25-0.562-0.493-1.129-0.712-1.703c-0.089-0.234-0.221-0.295-0.458-0.292c-1.21,0.011-2.42,0.017-3.632-0.003
		c-0.279-0.004-0.399,0.094-0.494,0.341c-0.214,0.553-0.467,1.089-0.687,1.639c-0.076,0.191-0.177,0.261-0.38,0.255
		c-0.434-0.016-0.867-0.005-1.364-0.005c0.052-0.146,0.085-0.26,0.13-0.364c1.241-2.844,2.488-5.685,3.721-8.53
		c0.106-0.242,0.218-0.362,0.498-0.337c0.383,0.037,0.851-0.098,1.129,0.08c0.265,0.17,0.338,0.646,0.489,0.99
		c1.13,2.579,2.258,5.16,3.386,7.742C34.037,78.414,34.081,78.541,34.146,78.71"/>
	<path clip-path="url(#SVGID_4_)" fill="#FFFFFF" d="M76.649,75.049c-0.527-1.22-1.031-2.386-1.564-3.618
		c-0.53,1.237-1.032,2.41-1.548,3.618H76.649z M70.33,78.71c0.523-1.193,1.015-2.321,1.508-3.448
		c0.796-1.819,1.595-3.636,2.38-5.461c0.1-0.231,0.208-0.343,0.474-0.319c0.295,0.022,0.595,0.014,0.891,0.001
		c0.193-0.009,0.305,0.046,0.388,0.238c1.269,2.92,2.546,5.835,3.819,8.752c0.027,0.06,0.045,0.124,0.082,0.235
		c-0.543,0-1.052,0.012-1.558-0.01c-0.083-0.004-0.19-0.14-0.233-0.238c-0.254-0.573-0.5-1.15-0.733-1.733
		c-0.069-0.176-0.159-0.242-0.352-0.24c-1.269,0.007-2.536,0.007-3.805,0c-0.19-0.002-0.288,0.062-0.357,0.237
		c-0.236,0.58-0.49,1.153-0.728,1.734c-0.073,0.184-0.169,0.265-0.379,0.258C71.282,78.698,70.839,78.71,70.33,78.71"/>
	<path clip-path="url(#SVGID_4_)" fill="#FFFFFF" d="M34.977,69.551h1.559c0.006,0.13,0.017,0.252,0.017,0.372
		c0,1.542-0.006,3.084,0.006,4.628c0.001,0.363,0.036,0.732,0.11,1.085c0.244,1.169,1.106,1.772,2.399,1.718
		c1.107-0.049,1.891-0.766,2.042-1.892c0.042-0.317,0.051-0.639,0.052-0.958c0.005-1.508,0.001-3.017,0.001-4.524v-0.422h1.591
		c0.007,0.095,0.02,0.193,0.02,0.292c0.001,1.679,0.012,3.359-0.003,5.039c-0.007,1.065-0.243,2.069-1.007,2.868
		c-0.884,0.925-2.026,1.135-3.24,1.079c-0.921-0.045-1.778-0.299-2.469-0.955c-0.768-0.73-1.074-1.672-1.094-2.689
		c-0.038-1.839-0.01-3.679-0.01-5.518C34.953,69.641,34.965,69.609,34.977,69.551"/>
	<path clip-path="url(#SVGID_4_)" fill="#FFFFFF" d="M51.044,70.602c-0.273,0.386-0.549,0.775-0.828,1.169
		c-0.334-0.188-0.649-0.392-0.985-0.554c-0.651-0.31-1.334-0.471-2.059-0.301c-0.691,0.161-1.048,0.677-0.915,1.294
		c0.074,0.351,0.312,0.566,0.616,0.682c0.478,0.184,0.973,0.32,1.459,0.48c0.541,0.181,1.093,0.332,1.613,0.556
		c0.912,0.399,1.393,1.115,1.393,2.124c0.002,1.049-0.426,1.871-1.373,2.35c-1.251,0.63-2.544,0.521-3.828,0.099
		c-0.733-0.242-1.443-0.697-1.881-1.153c0.31-0.369,0.624-0.742,0.945-1.125c0.275,0.194,0.525,0.392,0.795,0.559
		c0.802,0.502,1.671,0.722,2.615,0.569c0.648-0.106,1.065-0.514,1.099-1.041c0.029-0.434-0.13-0.775-0.526-0.95
		c-0.426-0.186-0.873-0.325-1.315-0.47c-0.532-0.17-1.082-0.289-1.602-0.487c-1.157-0.44-1.65-1.15-1.656-2.291
		c-0.005-1.093,0.602-1.985,1.648-2.418C47.706,69.092,50.037,69.529,51.044,70.602"/>
</g>
<polygon fill="#FFFFFF" points="57.101,71.044 57.101,78.688 55.474,78.688 55.474,71.062 52.591,71.062 52.591,69.56 59.965,69.56 
	59.965,71.044 "/>
<polygon fill="#FFFFFF" points="83.035,77.221 87.85,77.221 87.85,78.686 81.466,78.686 81.466,69.56 83.035,69.56 "/>
<polygon fill="#FFFFFF" points="117.458,82.719 117.458,91.806 123.817,91.806 123.817,90.365 119.016,90.365 119.016,82.719 "/>
<rect x="89.626" y="69.551" fill="#FFFFFF" width="1.583" height="9.135"/>
<rect x="103.086" y="82.721" fill="#FFFFFF" width="1.582" height="9.101"/>
</svg>
