<?xml version="1.0" encoding="utf-8"?>
<!-- Generator: Adobe Illustrator 16.0.4, SVG Export Plug-In . SVG Version: 6.00 Build 0)  -->
<!DOCTYPE svg PUBLIC "-//W3C//DTD SVG 1.1//EN" "http://www.w3.org/Graphics/SVG/1.1/DTD/svg11.dtd">
<svg version="1.1" id="Layer_1" xmlns="http://www.w3.org/2000/svg" xmlns:xlink="http://www.w3.org/1999/xlink" x="0px" y="0px"
	 width="200px" height="200px" viewBox="0 0 200 200" enable-background="new 0 0 200 200" xml:space="preserve">
<g>
	<path fill="#FFFFFF" d="M95.752,155.442H72.016c4.661,14.5,26.646,35.485,37.958,36.072
		C102.156,180.619,98.069,168.387,95.752,155.442 M184.646,155.354c-7.905,0-15.435,0.018-22.965-0.018
		c-1.069-0.012-1.292,0.57-1.503,1.392c-1.081,4.287-2.079,8.599-3.337,12.839c-1.714,5.75-3.899,11.329-6.93,16.527
		c-1.069,1.839-2.231,3.606-3.348,5.409C164.631,185.206,176.822,172.838,184.646,155.354 M94.261,108.562
		c0.675-10.877,2.898-21.267,6.254-31.551c-4.667,0-9.074-0.006-13.482,0.012c-0.411,0-0.825,0.135-1.228,0.241
		c-4.378,1.163-7.098,4.053-9.239,7.994c-4.005,7.353-7.344,14.895-8.589,23.305H94.261z M156.584,77.011
		c3.395,10.331,5.58,20.792,6.272,31.475h27.122c-0.198-1.034-0.369-1.915-0.564-2.79c-1.761-8.117-5.079-15.611-9.39-22.646
		c-2.027-3.301-5.092-5.698-9.062-5.962C166.269,76.77,161.534,77.011,156.584,77.011 M92.956,116.003
		c-8.504,0-17.062-0.029-25.621,0.059c-0.432,0-1.161,0.811-1.246,1.327c-0.27,1.663-0.455,3.377-0.391,5.052
		c0.144,3.876,0.212,7.775,0.764,11.604c0.664,4.575,1.789,9.081,2.673,13.397h25.566C94.117,136.952,93.547,126.609,92.956,116.003
		 M163.044,115.997c1.151,10.637,0.188,21.056-0.95,31.539h25.548c3.078-9.796,4.604-19.781,3.442-30.088
		c-0.154-1.293-0.858-1.48-1.979-1.475c-7.289,0.041-14.583,0.023-21.872,0.023H163.044z M102.374,108.515h53
		c-0.246-2.948-0.224-5.832-0.787-8.593c-1.444-7.088-3.136-14.131-4.757-21.184c-0.259-1.133-0.752-1.78-2.22-1.774
		c-12.435,0.082-24.868,0.059-37.308,0.03c-1.122-0.006-1.721,0.229-2.021,1.451c-1.392,5.685-3.095,11.311-4.278,17.043
		C103.138,99.716,102.902,104.074,102.374,108.515 M155.444,147.536c0.3-10.565,0.594-20.967,0.894-31.422h-54.997
		c0.528,10.555,1.051,20.968,1.573,31.422H155.444z"/>
	<path fill="#FFFFFF" d="M68.491,61.036c1.583-15.071-8.901-25.79-21.777-26.229c-10.687-0.37-21.153,7.024-22.897,19.652
		c-1.647,11.946,6.49,23.933,20.78,25.437c2.805-12.234,5.4-24.585,12.504-35.509C60.956,50.023,64.601,55.35,68.491,61.036
		 M160.185,6.385c1.756,1.204,3.829,2.138,5.174,3.7c1.245,1.456,2.29,3.542,2.426,5.427c0.347,4.687,0.111,9.415,0.111,14.331
		h-14.037c2.115,13.244,4.194,26.252,6.284,39.344H96.968c0.776-5.215,1.536-10.354,2.317-15.635H81.471
		c0,0.905-0.05,1.856,0.006,2.808c0.33,5.967-0.854,11.635-3.527,16.979c-3.33,6.678-8.369,11.747-14.841,15.394
		c-1.354,0.764-2.801,1.439-4.293,1.821c-1.439,0.376-2.083,1.162-2.317,2.513c-1.107,6.508-2.514,12.986-3.283,19.529
		c-0.919,7.881-1.287,15.811-1.912,23.722c-0.194,2.467-0.183,4.98-0.723,7.371c-0.699,3.112-2.34,4.029-5.779,3.923
		c-2.197-0.063-4.42-1.961-4.843-4.398c-0.223-1.315-0.042-2.708-0.042-4.059c0-2.761-0.041-5.521,0.012-8.275
		c0.091-4.758,0.103-9.526,0.39-14.271c0.35-5.738,0.934-11.459,1.457-17.18c0.162-1.802,0.494-3.583,0.708-5.373
		c0.126-0.999-0.167-1.545-1.363-1.639c-4.687-0.375-8.962-2.085-13.003-4.399c-6.381-3.659-11.122-8.915-14.117-15.558
		c-1.354-3.013-1.876-6.402-2.79-9.609c-0.062-0.205-0.235-0.376-0.355-0.558v-9.931c0.247-1.01,0.494-2.026,0.746-3.037
		c2.659-10.625,8.695-18.688,18.496-23.627c6.043-3.049,12.5-4.252,19.393-3.565c7.633,0.763,14.261,3.518,20.143,8.486
		c1.186-0.962,2.422-1.92,3.609-2.948c5.714-4.958,11.341-10.014,17.153-14.847c2.084-1.745,4.517-3.154,6.957-4.37
		c1.933-0.958,4.114-1.398,6.19-2.067H160.185z"/>
	<path fill="#FFFFFF" d="M125.979,194.698c-8.099-3.336-12.069-10.313-15.382-17.755c-1.604-3.595-2.837-7.365-3.997-11.136
		c-1.04-3.371-1.756-6.842-2.64-10.378h49.07c-1.427,7.036-3.265,13.92-6.078,20.533c-2.291,5.362-4.934,10.514-9.28,14.472
		c-1.902,1.732-4.352,2.86-6.542,4.264H125.979z"/>
	<path fill="#FFFFFF" d="M155.444,147.536h-52.53c-0.522-10.454-1.045-20.867-1.573-31.422h54.997
		C156.038,126.569,155.744,136.971,155.444,147.536"/>
	<path fill="#FFFFFF" d="M102.371,108.509c0.531-4.435,0.764-8.792,1.636-13.027c1.181-5.732,2.887-11.353,4.275-17.043
		c0.294-1.221,0.904-1.451,2.021-1.451c12.434,0.029,24.867,0.058,37.302-0.024c1.468-0.012,1.961,0.641,2.226,1.769
		c1.621,7.065,3.312,14.107,4.757,21.196c0.563,2.761,0.535,5.633,0.793,8.581H102.371z"/>
	<path fill="#FFFFFF" d="M163.044,115.997h4.182c7.296,0,14.59,0.018,21.879-0.018c1.121-0.006,1.825,0.182,1.979,1.475
		c1.161,10.307-0.364,20.292-3.438,30.089h-25.553C163.232,137.053,164.195,126.634,163.044,115.997"/>
	<path fill="#FFFFFF" d="M92.954,115.997c0.59,10.619,1.16,20.955,1.744,31.451H69.131c-0.878-4.322-2.008-8.828-2.669-13.409
		c-0.548-3.823-0.62-7.723-0.764-11.599c-0.067-1.68,0.127-3.383,0.397-5.052c0.084-0.517,0.804-1.327,1.244-1.327
		C75.897,115.979,84.455,115.997,92.954,115.997"/>
	<path fill="#FFFFFF" d="M156.584,77.011c4.95,0,9.679-0.247,14.378,0.07c3.964,0.276,7.035,2.661,9.056,5.968
		c4.317,7.036,7.636,14.53,9.403,22.646c0.188,0.875,0.359,1.756,0.569,2.79h-27.134C162.176,97.802,159.979,87.342,156.584,77.011"
		/>
	<path fill="#FFFFFF" d="M94.261,108.562H67.978c1.251-8.41,4.584-15.945,8.589-23.305c2.141-3.935,4.858-6.831,9.242-7.994
		c0.405-0.106,0.813-0.241,1.221-0.247c4.408-0.012,8.825-0.006,13.485-0.006C97.165,87.294,94.933,97.69,94.261,108.562"/>
	<path fill="#FFFFFF" d="M184.64,155.354c-7.811,17.484-20.009,29.853-38.081,36.145c1.122-1.798,2.284-3.571,3.354-5.404
		c3.03-5.198,5.222-10.777,6.93-16.527c1.258-4.234,2.256-8.558,3.349-12.845c0.199-0.821,0.416-1.397,1.491-1.392
		C169.212,155.371,176.741,155.354,184.64,155.354"/>
	<path fill="#FFFFFF" d="M95.755,155.442c2.314,12.944,6.405,25.184,14.219,36.072c-11.308-0.587-33.295-21.572-37.964-36.072
		H95.755z"/>
</g>
</svg>
