<?xml version="1.0" encoding="utf-8"?>
<!-- Generator: Adobe Illustrator 16.0.4, SVG Export Plug-In . SVG Version: 6.00 Build 0)  -->
<!DOCTYPE svg PUBLIC "-//W3C//DTD SVG 1.1//EN" "http://www.w3.org/Graphics/SVG/1.1/DTD/svg11.dtd">
<svg version="1.1" id="Layer_1" xmlns="http://www.w3.org/2000/svg" xmlns:xlink="http://www.w3.org/1999/xlink" x="0px" y="0px"
	 width="200px" height="200px" viewBox="0 0 200 200" enable-background="new 0 0 200 200" xml:space="preserve">
<g>
	<path fill="#FFFFFF" d="M88.403,39.624h6.621c0.535,0.102,1.069,0.244,1.609,0.31c3.572,0.426,7.189,0.628,10.718,1.293
		c18.018,3.396,33.561,11.462,45.977,25.105c7.519,8.269,12.883,17.789,15.062,28.811c1.105,5.582,1.587,11.301,2.129,16.974
		c0.486,5.105,2.764,9.141,6.621,12.37c3.453,2.885,7.422,4.907,11.528,6.682c0.613,0.269,1.211,0.583,1.815,0.872
		c0,0.172,0.01,0.345,0.02,0.518c-0.797,0.269-1.582,0.623-2.403,0.796c-14.195,2.95-28.476,5.562-42.585,8.897
		c-15.422,3.649-30.782,7.655-45.998,12.101c-9.843,2.87-19.799,4.607-29.949,5.151c-7.035,0.375-14.13,0.151-21.168-0.233
		c-9.144-0.502-18.067-2.301-26.52-5.978c-3.652-1.587-7.024-3.65-9.873-6.479c-1.818-1.794-1.595-4.187,0.54-5.53
		c1.144-0.726,2.347-1.354,3.467-2.108c2.441-1.643,3.458-3.904,3.397-6.911c-0.167-7.756-0.396-15.528-0.104-23.279
		c0.343-9.308,2.345-18.357,5.708-27.057c5.182-13.404,13.541-24.249,25.916-31.797c9.458-5.765,19.811-8.741,30.763-9.851
		C83.929,40.05,86.167,39.842,88.403,39.624"/>
</g>
</svg>
