<?xml version="1.0" encoding="utf-8"?>
<!-- Generator: Adobe Illustrator 16.0.4, SVG Export Plug-In . SVG Version: 6.00 Build 0)  -->
<!DOCTYPE svg PUBLIC "-//W3C//DTD SVG 1.1//EN" "http://www.w3.org/Graphics/SVG/1.1/DTD/svg11.dtd">
<svg version="1.1" id="Layer_1" xmlns="http://www.w3.org/2000/svg" xmlns:xlink="http://www.w3.org/1999/xlink" x="0px" y="0px"
	 width="200px" height="200px" viewBox="0 0 200 200" enable-background="new 0 0 200 200" xml:space="preserve">
<path fill="#FFFFFF" d="M190.77,87.366l-86.26-62.734c-2.019-1.472-4.751-1.472-6.769,0L11.481,87.366
	c-2.565,1.863-3.134,5.462-1.266,8.028c1.869,2.571,5.458,3.129,8.034,1.271l11.352-8.258v78.887c0,3.181,2.577,5.751,5.75,5.751
	h46.437c3.175,0,5.751-2.57,5.751-5.751v-54.017h27.172v54.017c0,3.181,2.576,5.751,5.751,5.751h46.436
	c3.175,0,5.751-2.57,5.751-5.751V88.412L184,96.67c1.025,0.741,2.21,1.098,3.376,1.098c1.776,0,3.531-0.822,4.656-2.37
	C193.909,92.834,193.333,89.234,190.77,87.366z M161.146,161.55h-34.935v-54.018c0-3.18-2.577-5.751-5.75-5.751H81.788
	c-3.174,0-5.75,2.571-5.75,5.751v54.018H41.103V80.045l60.024-43.654l60.025,43.654v81.504H161.146z"/>
</svg>
