<?xml version="1.0" encoding="utf-8"?>
<!-- Generator: Adobe Illustrator 16.0.4, SVG Export Plug-In . SVG Version: 6.00 Build 0)  -->
<!DOCTYPE svg PUBLIC "-//W3C//DTD SVG 1.1//EN" "http://www.w3.org/Graphics/SVG/1.1/DTD/svg11.dtd">
<svg version="1.1" id="Layer_1" xmlns="http://www.w3.org/2000/svg" xmlns:xlink="http://www.w3.org/1999/xlink" x="0px" y="0px"
	 width="200px" height="200px" viewBox="150 150 200 200" enable-background="new 150 150 200 200" xml:space="preserve">
<path fill="#FFFFFF" d="M190.238,279.43c14.705,0,26.973-11.025,29.673-25.572h81.464v15.311c0,3.111,2.52,5.625,5.625,5.625
	s5.625-2.516,5.625-5.625v-15.311h16.129v24.268c0,3.111,2.519,5.625,5.625,5.625c3.105,0,5.625-2.516,5.625-5.625v-29.892
	c0-3.111-2.52-5.625-5.625-5.625h-114.35c-2.396-14.935-14.822-26.359-29.792-26.359c-16.673,0-30.241,14.169-30.241,31.586
	C159.998,265.25,173.565,279.43,190.238,279.43z M190.238,227.503c10.468,0,18.991,9.125,18.991,20.335
	c0,11.216-8.522,20.342-18.991,20.342s-18.99-9.125-18.99-20.342C171.248,236.628,179.771,227.503,190.238,227.503z"/>
</svg>
