<?xml version="1.0" encoding="utf-8"?>
<!-- Generator: Adobe Illustrator 16.0.4, SVG Export Plug-In . SVG Version: 6.00 Build 0)  -->
<!DOCTYPE svg PUBLIC "-//W3C//DTD SVG 1.1//EN" "http://www.w3.org/Graphics/SVG/1.1/DTD/svg11.dtd">
<svg version="1.1" id="Layer_1" xmlns="http://www.w3.org/2000/svg" xmlns:xlink="http://www.w3.org/1999/xlink" x="0px" y="0px"
	 width="200px" height="200px" viewBox="150 150 200 200" enable-background="new 150 150 200 200" xml:space="preserve">
<path fill="#FFFFFF" d="M245.867,328.536c0.939,1.393,2.509,2.226,4.184,2.226l0,0c1.682,0,3.251-0.837,4.185-2.226l47.631-70.76
	c5.693-9.081,8.707-19.511,8.707-30.166c0-32.184-27.172-58.372-60.573-58.372c-33.401,0-60.573,26.188-60.573,58.372
	c0,10.671,3.024,21.12,8.829,30.348L245.867,328.536z M250.006,179.328c27.833,0,50.478,21.66,50.478,48.276
	c0,8.753-2.478,17.33-7.077,24.664l-43.36,64.409l-43.33-64.237c-4.705-7.48-7.188-16.067-7.188-24.835
	C199.528,200.988,222.172,179.328,250.006,179.328z"/>
<path fill="#FFFFFF" d="M250.006,255.156c15.825,0,28.702-12.453,28.702-27.762c0-15.311-12.872-27.763-28.702-27.763
	c-15.83,0-28.701,12.453-28.701,27.763C221.305,242.703,234.181,255.156,250.006,255.156z M250.006,209.727
	c10.257,0,18.606,7.925,18.606,17.667c0,9.741-8.344,17.667-18.606,17.667c-10.262,0-18.606-7.926-18.606-17.667
	C231.4,217.651,239.749,209.727,250.006,209.727z"/>
</svg>
