<?xml version="1.0" encoding="utf-8"?>
<!-- Generator: Adobe Illustrator 16.0.4, SVG Export Plug-In . SVG Version: 6.00 Build 0)  -->
<!DOCTYPE svg PUBLIC "-//W3C//DTD SVG 1.1//EN" "http://www.w3.org/Graphics/SVG/1.1/DTD/svg11.dtd">
<svg version="1.1" id="Layer_1" xmlns="http://www.w3.org/2000/svg" xmlns:xlink="http://www.w3.org/1999/xlink" x="0px" y="0px"
	 width="200px" height="200px" viewBox="0 0 200 200" enable-background="new 0 0 200 200" xml:space="preserve">
<g>
	<path fill="#FFFFFF" d="M67.278,44.684c0,0-14.315-30.091-11.811-30.806c2.501-0.72,10.734-3.221,35.078-3.581
		c24.336-0.36,54.399-0.719,55.119,1.434c0.714,2.147-2.147,7.875-4.296,14.323c-2.147,6.448-8.595,20.417-8.595,20.417
		s3.581,3.221,3.581,6.088s-0.359,6.448-2.147,8.241c-1.788,1.788-3.581,4.655-3.581,4.655s1.434,1.433,3.94,3.581
		c2.508,2.147,4.295,3.946,4.295,3.946s2.147-0.72,2.507-2.513c0.36-1.788,4.655-3.221,8.23-5.548
		c3.581-2.333,3.935-2.687,6.802-2.687s5.015,1.433,5.015,1.433s23.616-13.615,24.335-11.108c0.715,2.507,1.793,64.652,1.793,77.008
		s0.354,14.329-2.158,14.689c-2.502,0.354-37.214-14.863-37.214-14.863s-4.295,8.056-9.31,12.53
		c-5.014,4.479-7.516,5.554-7.516,5.554s2.502,3.581,8.235,17.196c5.723,13.609,11.086,20.766,10.018,22.198
		c-1.079,1.435-42.588,1.08-56.549,1.614c-13.958,0.539-39.373,2.332-39.016-0.895c0.362-3.221,16.105-39.035,16.105-39.035
		s-5.009-1.799-9.661-7.527c-4.654-5.734-6.083-10.748-6.083-10.748s-10.022,4.841-19.332,8.241
		c-9.307,3.401-20.043,8.955-21.114,7.521c-1.077-1.434-0.363-74.321-0.363-81.31c0-6.981-1.071-10.742,2.511-9.668
		c3.575,1.073,23.98,8.955,23.98,8.955s0.714-1.787,4.295-0.714c3.575,1.074,14.672,4.115,15.385,6.448
		c0.72,2.327,2.148,4.294,2.148,4.294l4.658-4.654c1.79-1.794,3.217-2.507,3.217-2.507s-3.937-5.015-3.937-11.822
		C65.845,48.26,67.278,44.684,67.278,44.684"/>
</g>
</svg>
