<?xml version="1.0" encoding="utf-8"?>
<!-- Generator: Adobe Illustrator 16.0.4, SVG Export Plug-In . SVG Version: 6.00 Build 0)  -->
<!DOCTYPE svg PUBLIC "-//W3C//DTD SVG 1.1//EN" "http://www.w3.org/Graphics/SVG/1.1/DTD/svg11.dtd">
<svg version="1.1" id="Layer_1" xmlns="http://www.w3.org/2000/svg" xmlns:xlink="http://www.w3.org/1999/xlink" x="0px" y="0px"
	 width="200px" height="200px" viewBox="150 150 200 200" enable-background="new 150 150 200 200" xml:space="preserve">
<g>
	<g>
		<defs>
			<rect id="SVGID_1_" x="179.663" y="160.459" width="150.837" height="181.203"/>
		</defs>
		<clipPath id="SVGID_2_">
			<use xlink:href="#SVGID_1_"  overflow="visible"/>
		</clipPath>
		<path clip-path="url(#SVGID_2_)" fill="#FFFFFF" d="M179.663,253.669v-3.07c0.811-2.401,3.139-1.976,4.956-2.491
			c0.033-0.616,0.068-1.124,0.074-1.627c0.077-5.722,0.077-11.437,0.267-17.154c0.08-2.378,0.363-4.793,0.885-7.112
			c0.89-3.977,3.331-5.917,7.168-6.101c4.168-0.2,6.811,1.433,8.191,5.243c0.516,1.42,0.995,2.928,1.101,4.426
			c0.485,6.556,0.837,13.124,1.231,19.691c0.036,0.58,0.006,1.172,0.006,1.817c19.621-0.875,38.979-1.751,58.386-2.622
			c0.076-0.432,0.172-0.775,0.184-1.124c0.26-5.354,0.586-10.704,0.746-16.06c0.414-14.383,0.71-28.78,1.165-43.164
			c0.136-4.125,0.8-8.213,2.479-12.064c2.308-5.303,5.882-9.26,11.591-10.958c1.012-0.308,2.036-0.563,3.053-0.841h5.823
			c1.739,0.54,3.579,0.864,5.201,1.645c5.692,2.751,7.634,7.882,7.924,13.691c0.407,8.362,0.419,16.74,0.751,25.113
			c0.537,13.774,1.201,27.543,1.805,41.312c0.022,0.604,0.064,1.202,0.088,1.876c0.509,0.04,0.899,0.095,1.29,0.106
			c4.142,0.088,8.284,0.03,12.409,0.326c2.762,0.201,5.59,0.632,8.23,1.467c4.206,1.337,5.993,4.29,5.822,8.621
			c-0.155,3.723-2.273,6.214-6.403,7.386c-4.331,1.225-8.78,1.063-13.229,1.016c-2.64-0.034-5.29-0.005-8.03-0.005
			c-0.066,0.354-0.172,0.745-0.195,1.143c-0.312,4.686-0.733,9.366-0.9,14.059c-0.496,13.159-0.863,26.324-1.36,39.489
			c-0.143,3.764-0.401,7.539-0.876,11.278c-0.839,6.599-4.697,10.78-10.935,12.22c-0.632,0.147-1.266,0.301-1.894,0.462h-5.821
			c-0.284-0.102-0.545-0.255-0.829-0.309c-3.936-0.77-7.077-2.769-9.514-5.939c-2.615-3.385-4.02-7.314-4.977-11.404
			c-1.994-8.555-2.303-17.276-2.468-26.017c-0.188-10.521-0.378-21.04-0.616-31.561c-0.047-1.982-0.295-3.952-0.455-5.988
			c-19.514-1.136-38.91-2.272-58.25-3.402c-0.26,5.71-0.438,11.267-0.813,16.805c-0.249,3.608-0.763,7.206-2.423,10.508
			c-1.272,2.521-3.222,4.171-6.112,4.178c-5.798,0.012-8.967-2.396-9.44-7.971c-0.346-4.052-0.151-8.158-0.169-12.236
			c-0.021-4.135-0.009-8.272-0.009-12.431C183.015,255.25,180.814,255.636,179.663,253.669"/>
	</g>
</g>
</svg>
