<?xml version="1.0" encoding="utf-8"?>
<!-- Generator: Adobe Illustrator 16.0.4, SVG Export Plug-In . SVG Version: 6.00 Build 0)  -->
<!DOCTYPE svg PUBLIC "-//W3C//DTD SVG 1.1//EN" "http://www.w3.org/Graphics/SVG/1.1/DTD/svg11.dtd">
<svg version="1.1" id="Layer_1" xmlns="http://www.w3.org/2000/svg" xmlns:xlink="http://www.w3.org/1999/xlink" x="0px" y="0px"
	 width="200px" height="200px" viewBox="0 0 200 200" enable-background="new 0 0 200 200" xml:space="preserve">
<g>
	<path fill="#FFFFFF" d="M135.743,80.066c-0.233-1.338-0.032-3.079-0.806-3.942c-4.909-5.56-9.222-11.95-17.067-13.963l0.195,0.162
		c-0.916-0.694-1.728-1.682-2.754-2.025c-6.988-2.338-14.21-3.533-21.471-2.04c-5.812,1.208-11.706,2.689-16.047,7.326
		c-0.578,0.578-1.163,1.156-1.75,1.733c-7.585,3.319-10.015,10.678-13.271,17.275c-1.179,2.39-1.851,5.189-2.03,7.852
		c-0.272,4.092-0.166,8.249,0.221,12.34c0.864,9.338,5.625,16.808,11.895,23.444c0.334,0.351,1.185,0.208,1.796,0.292
		c0.886,1.221,1.763,2.442,2.646,3.663c15.265,10.352,38.038,9.93,50.43-3.747c2.792-4.008,5.572-8.008,8.364-12.015
		c0.844-1.201,1.987-2.293,2.481-3.624c2.545-6.955,3.623-14.197,1.936-21.425c-0.942-3.994-3.222-7.676-4.897-11.495
		L135.743,80.066z M127.612,192.725c-9.858-0.545-18.912-2.779-25.604-10.988c-3.286-4.02-5.946-3.936-10.095,0.526
		c-5.307,5.715-11.411,9.372-19.272,10.156c-6.047,0.611-11.804,0.085-17.106-3.083c-13.161-7.859-25.729-16.704-34.554-29.369
		c-6.027-8.644-12.704-17.548-12.501-29.037c0.132-7.644,2.165-14.722,7.461-20.561c0.731-0.806,1.409-1.663,2.102-2.501
		c5.952-7.15,5.845-9.877-0.66-16.697C7.61,80.936,5.617,69.804,11.796,56.984C21.869,36.079,37.67,20.83,58.349,10.419
		c10.611-5.352,20.21-3.04,29.338,3.267c3.565,2.467,6.972,5.273,10.004,8.365c2.033,2.072,3.358,1.604,5.02,0
		c1.004-0.975,2.095-1.89,2.933-2.995c8.452-11.131,25.851-11.391,36.308-5.754c16.457,8.872,30.946,20.374,41.227,36.24
		c7.573,11.689,11.353,24.348,4.547,37.856c-1.391,2.786-3.832,5.208-6.242,7.274c-5.215,4.461-5.5,6.234-0.292,10.502
		c4.208,3.435,5.976,7.987,7.709,12.937c4.332,12.353,1.307,22.672-6.144,33.083c-9.937,13.871-19.905,27.394-35.161,35.946
		C141.367,190.635,134.873,192.895,127.612,192.725"/>
</g>
</svg>
