<?xml version="1.0" encoding="utf-8"?>
<!-- Generator: Adobe Illustrator 16.0.4, SVG Export Plug-In . SVG Version: 6.00 Build 0)  -->
<!DOCTYPE svg PUBLIC "-//W3C//DTD SVG 1.1//EN" "http://www.w3.org/Graphics/SVG/1.1/DTD/svg11.dtd">
<svg version="1.1" id="Layer_1" xmlns="http://www.w3.org/2000/svg" xmlns:xlink="http://www.w3.org/1999/xlink" x="0px" y="0px"
	 width="200px" height="200px" viewBox="0 0 200 200" enable-background="new 0 0 200 200" xml:space="preserve">
<g>
	<path fill="#FFFFFF" d="M172.959,187.615c0.527,3.425,1.054,3.674,1.054,3.674H40.901c-4.152-14.578-8.275-29.21-11.515-44.011
		c-1.165-5.331-1.05-11.709,0.813-16.758c3.251-8.791,7.855-17.194,12.806-25.201c2.277-3.674,7.152-5.634,10.098-9.02
		c4.524-5.212,8.354-11.023,12.565-16.509c2.82-3.675,6.06-7.044,8.654-10.859c5.308-7.788,3.756-13.504-4.543-18.357
		c-3.292-1.931-6.611-3.833-9.754-5.986c-6.808-4.661-6.4-14.156,0.86-18.101c6.94-3.773,14.212-5.951,21.732-1.543
		c5.265,3.087,8.593,0.927,11.189-3.639c1.13-1.978,2.49-3.979,2.977-6.133c1.417-6.298,5.942-7.313,10.862-5.904
		c5.755,1.654,11.096,4.712,16.777,6.662c8.451,2.892,14.104,8.733,18.353,16.227c6.603,11.614,10.523,24.086,11.357,37.438
		c0.598,9.437-6.211,17.067-15.741,17.419c-4.896,0.182-9.831-0.521-13.944-0.781c-2.325,3.827-4.438,7.313-6.809,11.222
		c5.458,2.16,11.92,4.748,18.411,7.262c3.352,1.303,6.209,2.727,5.404,7.246c-0.193,1.098,0.752,2.514,1.433,3.623
		c6.715,10.863,9.837,22.801,12.806,35.189c2.454,10.282,8.909,19.662,13.88,29.292C169.572,180.067,172.433,184.19,172.959,187.615
		z"/>
</g>
<path d="M166.375,185.5"/>
</svg>
