<?xml version="1.0" encoding="utf-8"?>
<!-- Generator: Adobe Illustrator 16.0.4, SVG Export Plug-In . SVG Version: 6.00 Build 0)  -->
<!DOCTYPE svg PUBLIC "-//W3C//DTD SVG 1.1//EN" "http://www.w3.org/Graphics/SVG/1.1/DTD/svg11.dtd">
<svg version="1.1" id="Layer_1" xmlns="http://www.w3.org/2000/svg" xmlns:xlink="http://www.w3.org/1999/xlink" x="0px" y="0px"
	 width="200px" height="200px" viewBox="0 0 200 200" enable-background="new 0 0 200 200" xml:space="preserve">
<g>
	<path fill="#FFFFFF" d="M27.232,88.606c-1.251,0.344-2.317,0.643-3.549,0.986c0.656,1.848-0.103,5.011,3.833,3.619
		C27.42,91.645,27.333,90.217,27.232,88.606 M105.5,158.185c0.304-0.041,0.611-0.076,0.919-0.116
		c-0.178-3.352-0.348-6.707-0.57-11.034C102.568,151.571,104.875,154.833,105.5,158.185 M146.255,131.315
		c0.366-0.246,0.74-0.495,1.105-0.741c-0.267-1.771-0.534-3.548-0.829-5.563c-1.941,0.785-3.382,1.365-5.681,2.293
		C142.962,128.865,144.608,130.093,146.255,131.315 M112.804,140.217c2.932-0.844,5.149-1.799,5.654-4.761
		c0.347-2.08-0.09-3.86-2.116-4.359C115.182,134.095,114.094,136.893,112.804,140.217 M21.882,155.534
		c0.333-1.905,0.581-3.293,1.026-5.833c-2.224,0.782-3.897,1.371-6.213,2.184c0.004,0.003-0.912-0.385-1.841-0.729
		c-0.685-0.249-1.385-0.45-2.079-0.669c0.535-0.692,0.933-1.668,1.636-2.012c1.625-0.794,3.404-1.285,5.253-1.941
		c-1.675-1.852-2.822-3.114-3.964-4.382c0.236-0.303,0.479-0.606,0.715-0.91c1.879,1.205,3.752,2.415,5.812,3.735
		c1.098-2.129,5.501-3.186,2.389-7.082c0.179-0.155,0.375-0.459,0.544-0.44c6.282,0.611,10.706-3.253,15.511-6.292
		c1.29-0.812,2.966-0.999,4.337-1.771c2.613-1.093,5.228-2.182,8.083-3.373c-0.029-0.205-0.13-1.004-0.239-1.838
		c1.649,0.937,3.19,1.815,4.729,2.69c0.215-0.362,0.429-0.723,0.643-1.085c-1.51-0.919-3.023-1.847-4.535-2.766
		c-0.837-0.504-1.735-0.938-2.506-1.535c-1.53-1.191-2.556-1.151-3.663,0.691c-1.065,1.771-2.59,3.267-4.199,5.234
		c-0.881-1.664-1.317-2.489-1.86-3.516c0.687-0.804,1.429-1.678,2.271-2.665c-4.752-0.499-6.086,0.625-6.84,4.967
		c-0.214,1.244-1.165,2.356-2.097,4.145c-0.658-1.517-1.073-2.485-1.7-3.931c-2.809,2.151-5.473,4.19-8.844,6.778
		c1.04-3.418,1.813-5.948,2.586-8.482c-0.321-0.21-0.645-0.419-0.964-0.629c0.834-0.161,1.671-0.326,2.503-0.486
		c-0.013-0.134-0.022-0.277-0.038-0.415c-2.443,0.263-4.888,0.518-7.326,0.776c-0.103-0.326-0.199-0.656-0.299-0.986
		c3.683-2.013,7.366-4.029,11.304-6.185c-0.1-0.142,0.393,0.571,1.247,1.808c0.919-1.32,1.613-2.312,2.267-3.244
		c-4.285-4.774-7.712,2.143-11.567,0.469c-0.448-3.142,0.501-6.51-1.816-8.634c-1.318,2.458-2.342,4.783-3.786,6.804
		c-0.488,0.679-2.057,0.59-3.335,0.907c0.292,0.521,0.754,1.352,1.375,2.467H8.481c3.972-3.44,7.06-6.122,10.417-9.031
		c-0.611-4.681-2.321-6.309-8.599-7.706c0.065-2.48-0.178-2.677-3.953-3.377c0-1.352,0.299-2.704-0.054-3.855
		c-0.893-2.914,1.687-5.131,6.327-4.997c-1.301-3.262-1.892-6.6,1.449-8.759c0.917-0.593,2.795,0.304,4.929,1.5
		c2.38-3.293,4.756-6.586,7.594-10.512c2.664-0.063,6.233-4.957,9.765-1.103c1.37-2.601,2.708-4.988,3.864-7.455
		c0.27-0.576-0.063-2.079-0.154-2.079c-5.126-0.188-1.818-3.212-2.102-5.93c1.484,1.138,2.365,1.821,3.38,2.597
		c1.544-3.912,3.989-3.311,6.117-1.503c1.874-0.548,3.291-0.959,5.095-1.486c-1.918-1.026-3.833-2.057-6.09-3.261
		c2.146-3.102,4.033-5.93,6.063-8.661c0.306-0.406,1.319-0.214,1.906-0.5c1.314-0.656,3.17-1.12,3.741-2.217
		c2.389-4.595,3.092-4.904,6.602-2.356c3.217-2.204,6.204-4.252,9.495-6.501c0.636,2.133,1.168,3.922,1.644,5.533
		c2.825-0.799,6.247-2.998,8.636-2.182c5.131,1.753,7.403-4.279,11.911-3.186c3.464,0.847,6.117-0.812,8.406-3.302
		c0.325-0.353,1.218-0.487,1.713-0.321c2.968,1.03,5.891,2.173,9.25,3.44c-0.438,1.481-0.924,3.164-1.41,4.841
		c0.121-0.022,1.031,0.084,1.428-0.312c1.963-1.968,3.842-0.982,5.104,0.49c1.574,1.848,3.007,1.566,4.863,0.817
		c3.904-1.575,5.622-0.798,6.577,2.936c0.518,2.021,0.865,4.091,1.669,6.291c1.338-2.869,3.417-4.033,6.152-3.288
		c0.638,0.174,0.906,1.7,1.62,3.172c4.613-2.806,10.253-1.356,16.504-1.458c-0.825,2.075-1.379,3.476-1.94,4.894
		c3.542,1.607,7.089,3.208,11.573,5.234c-1.383,1.83-2.597,3.44-4.069,5.395h4.766c0.865,0.705,1.91,1.539,3.368,2.712
		c-1.319,0.286-2.271,0.487-3.217,0.683c2.994,3.074,2.989,3.288-0.764,6.67c3.17,0.237,6.078-0.232,8.207,0.839
		c1.739,0.879,2.534,3.605,3.913,5.765c-1.192,0.063-1.714,0.085-2.855,0.143c1.289,0.865,2.097,1.405,3.931,2.633
		c-2.977,0.53-4.895,0.87-6.826,1.209c0.874,1.102,1.865,2.337,2.957,3.712c3.11,0.365,6.688,0.789,10.518,1.24
		c-0.5,1.503-0.964,2.887-1.594,4.761h6.715c-0.977,2.917-1.873,5.586-2.525,7.522c-2.391,1.865-4.516,3.521-6.818,5.319
		c0.376,1.73,0.872,4.047,1.384,6.446c-2.239-0.227-4.257-0.437-6.272-0.642c-0.055,0.316-0.111,0.633-0.171,0.94
		c-1.954-0.972-3.913-1.945-6.166-3.069c0.514,2.392,0.562,4.676,3.53,5.261c0.682,0.139,1.749,0.964,1.754,1.481
		c0.03,4.104,3.141,4.377,5.979,5.131c1.329,0.348,2.592,0.955,3.698,2.155h-5.326c0.642,1.754,1.132,3.074,1.917,5.197
		c-1.618-0.36-3.288-0.731-4.983-1.11c0.304-1.183,0.473-1.86,0.647-2.543c-3.315,3.837-5.627-0.282-8.17-0.875
		c-2.298-0.531-4.439-1.73-6.648-2.632c-0.223,0.432-0.446,0.865-0.664,1.303c3.189,2.503,6.376,5.006,9.499,7.451
		c-1.692,1.209-1.692,1.209-5.542-1.281c-0.446,0.696-0.906,1.388-1.321,2.106c-0.106,0.191-0.071,0.468,0-0.085
		c1.941,3.07,3.553,5.617,5.658,8.95c-3.819-0.7-6.537-1.204-9.205-1.694c0.572,1.15,1.309,2.632,2.045,4.118
		c2.77-4.627,5.5,0.588,8.294,0.178c-1.058,0.304-2.115,0.603-2.896,0.821c1.65,1.289,3.212,2.512,4.769,3.734
		c-0.151,0.312-0.312,0.625-0.473,0.941c-4.131-1.013-8.709-1.285-12.227-3.355c-1.774-1.044-3.996-1.236-5.344-2.57
		c-2.606-2.569-3.936-1.271-5.229,1.005c3.195,1.758,6.345,3.498,9.499,5.233c-0.134,0.308-0.263,0.62-0.393,0.937
		c-0.62-0.089-1.236-0.173-2.213-0.312c0.374,1.079,0.696,1.999,1.079,3.102c-1.173,0.388-2.306,0.762-3.601,1.186
		c-0.659-1.294-1.258-2.458-1.9-3.717c-1.205,0.442-2.32,0.848-2.758,1.009c-2.4-1.214-4.363-2.209-6.336-3.203
		c-0.258,0.383-0.525,0.767-0.785,1.146c0.465,0.794,0.933,1.579,1.589,2.673c-2.998-0.955-4.292,2.734-8.071,1.477
		c-3.659-1.218-3.128-5.863-6.171-5.774c-1.508,0.906-2.57,1.544-4.025,2.424c0.036,0.401,0.135,1.329,0.331,3.186
		c-4.002-3.574-0.929-7.256-1.82-10.334c-5.337,0.259-12.07,5.979-13.546,12.814c-1.044,4.827-0.724,9.981-0.701,14.986
		c0.014,2.594,1.682,3.745,4.427,3.79c6.759,0.11,13.51,0.486,20.261,0.753c0,0.349-0.009,0.692-0.018,1.035H70.102
		c-0.041-0.178-0.083-0.353-0.123-0.526c0.804-0.133,1.6-0.343,2.407-0.38c5.79-0.271,11.588-0.433,17.373-0.754
		c7.164-0.4,8.676-2.104,8-9.227c-0.558-5.858-3.07-10.886-7.275-14.975c-0.872-0.852-2.443-1.659-3.527-1.48
		c-3.362,0.549-6.652,1.584-10.421,2.548c-0.653-0.469-1.708-1.228-2.811-2.018c-1.667,7.287-1.731,7.332-6.662,5.029
		c-0.415,1.013-0.83,2.033-1.243,3.051c-0.315-0.084-0.625-0.178-0.941-0.262c0.584-1.902,1.171-3.802,1.805-5.872
		c-1.238-0.611-2.49-1.236-4.033-2.004c-0.288,1.026-0.549,1.959-0.924,3.306c-1.008-0.896-1.696-1.507-2.599-2.311
		c2.622-3.137,5.201-6.22,7.781-9.308c-0.183-0.179-0.37-0.361-0.553-0.544c-2.023,0.915-4.049,1.825-6.264,2.828
		c0.353,0.647,0.728,1.339,0.85,1.571c-2.855,1.985-5.624,3.908-8.658,6.019c0.489,0.844,1.064,1.83,1.63,2.799
		c-1.949,0.205-3.884,0.41-6.034,0.646c0.52,0.866,0.995,1.665,1.604,2.69c-3.647,0.99-7.201,1.956-11.504,3.124
		c0.955-1.593,1.483-2.473,2.351-3.931c-2.119,0.683-3.659,1.182-6.253,2.012c1.265-1.339,1.787-1.893,1.932-2.048
		c-0.653-1.888-1.229-3.543-1.983-5.716c-0.898,0.54-2.634,1.044-2.69,1.691C30.855,153.602,26.666,154.365,21.882,155.534"/>
</g>
</svg>
