<?xml version="1.0" encoding="utf-8"?>
<!-- Generator: Adobe Illustrator 16.0.4, SVG Export Plug-In . SVG Version: 6.00 Build 0)  -->
<!DOCTYPE svg PUBLIC "-//W3C//DTD SVG 1.1//EN" "http://www.w3.org/Graphics/SVG/1.1/DTD/svg11.dtd">
<svg version="1.1" id="Layer_1" xmlns="http://www.w3.org/2000/svg" xmlns:xlink="http://www.w3.org/1999/xlink" x="0px" y="0px"
	 width="500px" height="500px" viewBox="0 0 500 500" enable-background="new 0 0 500 500" xml:space="preserve">
<path fill-rule="evenodd" clip-rule="evenodd" fill="#FEE686" d="M249.362,489.66c53.042,0,96.305-10.196,96.305-22.698
	s-43.263-22.697-96.305-22.697c-53.044,0-96.306,10.195-96.306,22.697S196.318,489.66,249.362,489.66z"/>
<g>
	<path fill-rule="evenodd" clip-rule="evenodd" fill="#1A1A1A" d="M294.266,436.922c-19.93,0-17.789-1.84-37.719-1.84
		c-3.354,9.556-2.725,19.11-2.725,28.665c19.929,0,47.908,0,67.84,0C321.871,448.172,294.266,446.479,294.266,436.922z"/>
	<rect x="253.065" y="458.109" fill-rule="evenodd" clip-rule="evenodd" fill="#010101" width="69.714" height="5.638"/>
</g>
<g>
	<path fill-rule="evenodd" clip-rule="evenodd" fill="#1A1A1A" d="M208.337,436.922c19.93,0,17.788-1.84,37.718-1.84
		c3.354,9.556,2.727,19.11,2.727,28.665c-19.93,0-47.91,0-67.841,0C180.73,448.172,208.337,446.479,208.337,436.922z"/>
	<rect x="179.823" y="458.109" fill-rule="evenodd" clip-rule="evenodd" fill="#010101" width="69.713" height="5.638"/>
</g>
<path fill-rule="evenodd" clip-rule="evenodd" fill="#5C5A4E" d="M298.728,303.785c-24.773,0-75.961,0-94.94,0v139.037h44.476
	l0.319-114.46h5.351l0.318,114.46h44.477V303.785z"/>
<rect x="203.787" y="297.373" fill-rule="evenodd" clip-rule="evenodd" fill="#535146" width="8.685" height="145.449"/>
<rect x="290.042" y="297.373" fill-rule="evenodd" clip-rule="evenodd" fill="#535146" width="8.686" height="145.449"/>
<path fill-rule="evenodd" clip-rule="evenodd" fill="#666457" d="M249.15,334.473h2.285h47.126V196.607
	c0-12-9.819-21.82-21.82-21.82h-25.306h-2.285h-26.151c-12.561,0-22.839,9.82-22.839,21.82v137.866H249.15z"/>
<path fill-rule="evenodd" clip-rule="evenodd" fill="#FFFFFF" d="M249.15,230.138l26.209-52.458c-2.154-0.879-4.142-1.739-5.792-2.6
	l-20.206-0.125l-20.207,0.125l-5.792,2.6L249.15,230.138z"/>
<g>
	<path fill-rule="evenodd" clip-rule="evenodd" fill="#F2D291" d="M229.668,163.127h39.393c0.166,0.466-0.216,1.095-0.085,1.577
		v11.1c-2.431,8.843-9.994,16.044-19.612,16.044c-9.615,0-17.711-7.357-20.142-16.2v-11.101
		C229.354,164.069,229.504,163.593,229.668,163.127z"/>
	<path fill-rule="evenodd" clip-rule="evenodd" fill="#D4A25F" d="M230.201,166.275l38.859-3.148
		c0.166,0.466-0.224,0.941-0.092,1.421v11.101c-2.004,7.288-7.316,12.981-14.695,14.758L230.201,166.275z"/>
</g>
<path fill-rule="evenodd" clip-rule="evenodd" fill="#666457" d="M200.139,92.05c-51.027-44.651-1.304-78.087,48.661-78.204
	c50.21-0.117,100.668,33.302,49.375,78.204l-49.019-4.769L200.139,92.05z"/>
<g>
	<path fill-rule="evenodd" clip-rule="evenodd" fill="#F2D291" d="M204.311,77.531c-1.24,4.202-1.98,9.053-2.064,14.663
		c-0.606,40.535,8.069,55.398,13.547,61.46c5.476,6.061,11.166,11.547,22.402,14.459c2.934,2.938,6.032,4.062,10.961,4.695V70.565
		L204.311,77.531z"/>
	<path fill-rule="evenodd" clip-rule="evenodd" fill="#ECBA68" d="M294.004,77.531c1.239,4.202,1.979,9.053,2.062,14.663
		c0.605,40.535-8.069,55.398-13.546,61.46c-5.478,6.061-11.165,11.547-22.403,14.459c-2.935,2.938-6.031,4.062-10.96,4.695V70.565
		L294.004,77.531z"/>
</g>
<g>
	<path fill-rule="evenodd" clip-rule="evenodd" fill="#F2D291" d="M204.249,77.745c-0.682,2.355-1.208,4.914-1.55,7.693
		c9.445,13.272,40.429,17.129,46.459,17.057V71.041l-0.01-0.026c-1.167,0.02-2.315,0.049-3.444,0.087l-40.273,6.255
		C205.021,77.488,204.626,77.618,204.249,77.745z"/>
	<path fill-rule="evenodd" clip-rule="evenodd" fill="#ECBA68" d="M294.065,77.745c0.682,2.355,1.208,4.914,1.55,7.693
		c-9.444,13.272-40.428,17.129-46.458,17.057V71.041l0.009-0.026c1.168,0.02,2.315,0.049,3.445,0.087l40.273,6.255
		C293.294,77.488,293.688,77.618,294.065,77.745z"/>
</g>
<path fill-rule="evenodd" clip-rule="evenodd" fill="#E0B775" d="M204.249,77.745c-0.682,2.355-1.208,4.914-1.55,7.693
	c9.445,13.272,40.429,16.362,46.459,16.289V71.041l-0.01-0.026c-1.167,0.02-2.315,0.049-3.444,0.087l-40.273,6.255
	C205.021,77.488,204.626,77.618,204.249,77.745z"/>
<path fill-rule="evenodd" clip-rule="evenodd" fill="#D4A25F" d="M294.065,77.745c0.682,2.355,1.208,4.914,1.55,7.693
	c-9.444,13.272-40.428,16.362-46.458,16.289V71.041l0.009-0.026c1.168,0.02,2.315,0.049,3.445,0.087l40.273,6.255
	C293.294,77.488,293.688,77.618,294.065,77.745z"/>
<path fill-rule="evenodd" clip-rule="evenodd" fill="#45220F" d="M221.931,107.051h10.875c1.375,0,2.498-1.123,2.498-2.498v-0.001
	c0-1.374-1.124-2.498-2.498-2.498h-10.875c-1.374,0-2.499,1.124-2.499,2.498v0.001C219.432,105.928,220.557,107.051,221.931,107.051
	z"/>
<path fill-rule="evenodd" clip-rule="evenodd" fill="#45220F" d="M265.508,107.051h10.876c1.375,0,2.498-1.123,2.498-2.498v-0.001
	c0-1.374-1.123-2.498-2.498-2.498h-10.876c-1.374,0-2.497,1.124-2.497,2.498v0.001C263.011,105.928,264.134,107.051,265.508,107.051
	z"/>
<path fill-rule="evenodd" clip-rule="evenodd" fill="#45220F" d="M281.242,75.549c14.161,15.301,14.272,34.779,14.272,34.779
	s5.096-15.977,1.903-32.267L281.242,75.549z"/>
<path fill-rule="evenodd" clip-rule="evenodd" fill="#381C0E" d="M281.242,75.549c4.389,4.743,7.427,9.885,9.532,14.726
	c3.492-2.634,6.078-5.781,7.1-9.518c-0.082-0.571-0.173-1.142-0.274-1.715c-1.235-0.498-2.809-1.074-4.714-1.685L281.242,75.549z"/>
<path fill-rule="evenodd" clip-rule="evenodd" fill="#45220F" d="M204.327,110.786c2.681-22.823,6.694-23.249,8.049-25.272
	c4.613-0.708,42.344,2.374,65.247-10.528l-28.466-4.421l-47.143,7.322C197.761,91.889,200.408,105.845,204.327,110.786z"/>
<path fill-rule="evenodd" clip-rule="evenodd" fill="#381C0E" d="M208.554,91.008c1.626-3.792,3.101-4.417,3.822-5.494
	c4.613-0.708,42.344,2.374,65.247-10.527l-25.012-3.884c-1.13-0.038-2.277-0.068-3.445-0.087l-0.009,0.026l-0.01-0.026
	c-1.167,0.02-2.315,0.049-3.444,0.087l-40.273,6.254c-1.386,0.445-2.597,0.87-3.629,1.262c-0.343,1.192-0.635,2.383-0.881,3.568
	C202.286,85.643,205.027,88.561,208.554,91.008z"/>
<path fill-rule="evenodd" clip-rule="evenodd" fill="#F2D291" d="M208.546,112.842c-1.042-2.698-2.319-4.579-5.667-5.283
	c-3.347-0.704-9.428,1.001-9.414,10.491c0.014,9.49,7.926,17.648,12.932,16.518C211.404,133.438,209.024,115.374,208.546,112.842z"
	/>
<path fill-rule="evenodd" clip-rule="evenodd" fill="#ECBA68" d="M206.327,115.978c-0.842-1.56-1.87-2.829-3.906-3.258
	c-2.037-0.426-4.979,0.584-4.971,6.36c0.009,5.774,4.067,10.765,7.113,10.077c0.964-0.217,1.495-1.62,1.77-3.433
	c-1.844-0.545-2.995-2.706-2.609-5.038c0.288-1.748,1.363-3.126,2.692-3.675C206.366,116.367,206.327,115.978,206.327,115.978z"/>
<path fill-rule="evenodd" clip-rule="evenodd" fill="#ECBA68" d="M289.015,112.911c1.386-2.562,3.073-4.648,6.42-5.352
	c3.347-0.704,9.427,1.001,9.414,10.491c-0.015,9.49-7.928,17.648-12.934,16.518C286.909,133.438,289.015,112.911,289.015,112.911z"
	/>
<path fill-rule="evenodd" clip-rule="evenodd" fill="#D4A25F" d="M291.986,115.978c0.842-1.56,1.869-2.829,3.907-3.258
	c2.036-0.426,4.979,0.584,4.971,6.36c-0.009,5.774-4.066,10.765-7.113,10.077c-0.964-0.217-1.495-1.62-1.77-3.433
	c1.845-0.545,2.994-2.706,2.609-5.038c-0.288-1.748-1.363-3.126-2.693-3.675C291.947,116.367,291.986,115.978,291.986,115.978z"/>
<circle fill-rule="evenodd" clip-rule="evenodd" fill="#45220F" cx="227.368" cy="116.234" r="3.836"/>
<circle fill-rule="evenodd" clip-rule="evenodd" fill="#45220F" cx="270.945" cy="116.234" r="3.836"/>
<path fill-rule="evenodd" clip-rule="evenodd" fill="#5C5A4E" d="M298.192,66.105c-8.434-7.538-32.362-12.945-48.781-13.056v-0.002
	l-0.254,0.001l-0.254-0.001v0.002c-16.419,0.11-40.347,5.518-48.781,13.056c0,9.141,0,2.936,0,12.076l49.036-7.616l49.035,7.616
	C298.192,69.041,298.192,75.247,298.192,66.105z"/>
<path fill-rule="evenodd" clip-rule="evenodd" fill="#1A1A1A" d="M298.192,78.182c-6.226-2.611-22.827-7.834-49.026-8.27
	l-0.009,0.024l-0.01-0.024c-26.199,0.435-42.801,5.658-49.026,8.27c2.839,18.267,42.16,18.601,49.036,18.518
	C256.031,96.782,295.354,96.449,298.192,78.182z"/>
<path fill-rule="evenodd" clip-rule="evenodd" fill="#FFFFFF" d="M210.138,83.522c-0.766-0.883-0.598-2.163,0.377-2.857
	c0.974-0.694,2.386-0.541,3.152,0.342c0.46,0.531,2.027,1.856,5.42,3.302c2.217,0.945,5.166,1.901,9.016,2.667
	c1.212,0.237,1.983,1.321,1.721,2.42c-0.262,1.1-1.456,1.798-2.669,1.56c-4.182-0.832-7.457-1.901-9.964-2.97
	C212.968,86.186,210.814,84.303,210.138,83.522z"/>
<path fill-rule="evenodd" clip-rule="evenodd" fill="#FFFFFF" d="M258.92,139.935c-0.718,4.746-4.815,8.386-9.763,8.386
	c-4.948,0-9.045-3.64-9.764-8.386H258.92z"/>
<path fill-rule="evenodd" clip-rule="evenodd" fill="#FFCD05" d="M200.122,71.224v5.864c6.225-2.611,22.827-7.835,49.026-8.271
	l0.01,0.025l0.009-0.025c26.199,0.436,42.801,5.659,49.026,8.271v-5.864c-6.226-2.611-22.827-7.834-49.026-8.271l-0.009,0.026
	l-0.01-0.026C222.949,63.389,206.347,68.612,200.122,71.224z"/>
<path fill-rule="evenodd" clip-rule="evenodd" fill="#F2D291" d="M169.456,308.703l0.941,25.646
	c0.054,1.447,0.856,2.693,2.018,3.382l0.085,2.344c0.084,2.27,2.008,4.046,4.276,3.949l0,0c0.246-0.01,0.488-0.041,0.721-0.095
	l0.082,2.24c0.083,2.27,2.008,4.046,4.276,3.95l0,0c2.267-0.097,4.056-2.032,3.972-4.302l-0.619-16.875l1.734,4.695
	c0.784,2.124,3.155,3.244,5.29,2.466l0,0c2.135-0.777,3.256-3.158,2.469-5.288l-4.617-12.499c-0.189-0.51-0.469-0.963-0.815-1.346
	c0.251-1.703,0.512-3.491,0.782-5.35l-12.486-4.188C176.417,303.186,169.255,303.215,169.456,308.703z"/>
<g>
	<polygon fill-rule="evenodd" clip-rule="evenodd" fill="#1A1A1A" points="243.772,200.673 242.319,216.242 249.077,229.987 
		249.163,200.62 249.163,191.847 244.823,188.206 239.792,195.865 	"/>
	<polygon fill-rule="evenodd" clip-rule="evenodd" fill="#010101" points="254.555,200.673 256.02,216.385 249.15,230.138 
		249.077,229.987 249.163,200.62 249.163,191.847 253.501,188.206 258.535,195.865 	"/>
</g>
<polygon fill-rule="evenodd" clip-rule="evenodd" fill="#FFFFFF" points="249.157,191.844 236.719,198.159 227.106,174.593 
	228.66,174.593 "/>
<polygon fill-rule="evenodd" clip-rule="evenodd" fill="#FFFFFF" points="192.573,310.23 190.999,319.535 168.355,315.542 
	169.931,306.237 "/>
<path fill-rule="evenodd" clip-rule="evenodd" fill="#666457" d="M168.298,309.473l24.284,4.526l20.859-136.808
	c-18.268-3.129-27.25,14.069-28.502,22.352L168.298,309.473z"/>
<path fill-rule="evenodd" clip-rule="evenodd" fill="#F2D291" d="M329.254,308.703l-0.941,25.646
	c-0.054,1.447-0.854,2.693-2.018,3.382l-0.087,2.344c-0.084,2.27-2.007,4.046-4.274,3.949l0,0c-0.247-0.01-0.488-0.041-0.722-0.095
	l-0.083,2.24c-0.083,2.27-2.008,4.046-4.274,3.95l0,0c-2.269-0.097-4.057-2.032-3.973-4.302l0.619-16.875l-1.733,4.695
	c-0.785,2.124-3.155,3.244-5.29,2.466l0,0c-2.135-0.777-3.256-3.158-2.468-5.288l4.615-12.499c0.188-0.51,0.47-0.963,0.815-1.346
	c-0.25-1.703-0.512-3.491-0.781-5.35l12.484-4.188C322.292,303.186,329.454,303.215,329.254,308.703z"/>
<polygon fill-rule="evenodd" clip-rule="evenodd" fill="#FFFFFF" points="306.147,310.23 307.724,319.535 330.366,315.542 
	328.792,306.237 "/>
<path fill-rule="evenodd" clip-rule="evenodd" fill="#666457" d="M330.424,309.473l-24.285,4.526l-20.857-136.808
	c18.268-3.129,27.249,14.069,28.503,22.352L330.424,309.473z"/>
<g>
	<path fill-rule="evenodd" clip-rule="evenodd" fill="#FFCD05" d="M249.408,242.214c1.504,0,2.731-1.228,2.731-2.732
		s-1.227-2.731-2.731-2.731s-2.731,1.227-2.731,2.731S247.903,242.214,249.408,242.214z"/>
	<path fill-rule="evenodd" clip-rule="evenodd" fill="#FFCD05" d="M249.408,260.305c1.504,0,2.731-1.229,2.731-2.732
		c0-1.505-1.227-2.73-2.731-2.73s-2.731,1.226-2.731,2.73C246.676,259.076,247.903,260.305,249.408,260.305z"/>
</g>
<path fill-rule="evenodd" clip-rule="evenodd" fill="#FFCD05" d="M199.861,78.732c0.963,0,1.748-2.144,1.748-4.773
	c0-2.628-0.785-4.772-1.748-4.772c-0.962,0-1.748,2.144-1.748,4.772C198.113,76.588,198.899,78.732,199.861,78.732z"/>
<path fill-rule="evenodd" clip-rule="evenodd" fill="#FFCD05" d="M298.538,78.732c0.963,0,1.749-2.144,1.749-4.773
	c0-2.628-0.786-4.772-1.749-4.772c-0.962,0-1.747,2.144-1.747,4.772C296.791,76.588,297.576,78.732,298.538,78.732z"/>
<polygon fill-rule="evenodd" clip-rule="evenodd" fill="#FFFFFF" points="249.157,191.844 261.596,198.159 271.208,174.593 
	269.654,174.593 "/>
<path fill-rule="evenodd" clip-rule="evenodd" fill="#FFCD05" d="M249.408,278.395c1.504,0,2.731-1.227,2.731-2.731
	c0-1.504-1.227-2.731-2.731-2.731s-2.731,1.228-2.731,2.731C246.676,277.168,247.903,278.395,249.408,278.395z"/>
<g>
	<g>
		<path fill-rule="evenodd" clip-rule="evenodd" fill="#FFCD05" d="M261.289,35.394c-0.19-0.691-1.669-1.363-0.542-3.624
			C260.76,32.478,262.674,33.977,261.289,35.394z"/>
		<path fill-rule="evenodd" clip-rule="evenodd" fill="#FFCD05" d="M262.019,35.677c0.572-0.433,2.154-0.063,2.642-2.544
			C264.219,33.687,261.786,33.707,262.019,35.677z"/>
		<path fill-rule="evenodd" clip-rule="evenodd" fill="#FFCD05" d="M262.27,33.416c-0.254-0.467-1.022-1.956,0.274-3.399
			C263.367,30.606,264.026,32.412,262.27,33.416z"/>
		<path fill-rule="evenodd" clip-rule="evenodd" fill="#FFCD05" d="M260.167,37.667c-0.172-0.697-1.635-1.403-0.452-3.637
			C259.709,34.738,261.586,36.283,260.167,37.667z"/>
		<path fill-rule="evenodd" clip-rule="evenodd" fill="#FFCD05" d="M259.111,39.794c-0.172-0.696-1.632-1.407-0.447-3.637
			C258.658,36.865,260.533,38.414,259.111,39.794z"/>
		<path fill-rule="evenodd" clip-rule="evenodd" fill="#FFCD05" d="M257.821,41.614c-0.164-0.699-1.616-1.425-0.405-3.643
			C257.4,38.679,259.258,40.248,257.821,41.614z"/>
		<path fill-rule="evenodd" clip-rule="evenodd" fill="#FFCD05" d="M256.451,43.48c-0.153-0.701-1.593-1.45-0.349-3.647
			C256.076,40.541,257.908,42.138,256.451,43.48z"/>
		<path fill-rule="evenodd" clip-rule="evenodd" fill="#FFCD05" d="M254.725,45.07c-0.055-0.715-1.376-1.657,0.163-3.661
			C254.765,42.106,256.354,43.943,254.725,45.07z"/>
		<path fill-rule="evenodd" clip-rule="evenodd" fill="#FFCD05" d="M253.127,46.271c-0.055-0.716-1.377-1.657,0.162-3.662
			C253.166,43.307,254.757,45.143,253.127,46.271z"/>
		<path fill-rule="evenodd" clip-rule="evenodd" fill="#FFCD05" d="M251.323,47.301c-0.021-0.717-1.303-1.716,0.321-3.65
			C251.491,44.342,253.001,46.247,251.323,47.301z"/>
		<path fill-rule="evenodd" clip-rule="evenodd" fill="#FFCD05" d="M249.494,47.894c0.049-0.716-1.126-1.835,0.679-3.601
			C249.953,44.965,251.269,47.01,249.494,47.894z"/>
		<path fill-rule="evenodd" clip-rule="evenodd" fill="#FFCD05" d="M260.81,37.959c0.622-0.357,2.146,0.212,2.945-2.185
			C263.245,36.266,260.83,35.974,260.81,37.959z"/>
		<path fill-rule="evenodd" clip-rule="evenodd" fill="#FFCD05" d="M259.523,40.042c0.681-0.229,2.062,0.625,3.314-1.572
			C262.241,38.855,259.929,38.1,259.523,40.042z"/>
		<path fill-rule="evenodd" clip-rule="evenodd" fill="#FFCD05" d="M258.202,41.986c0.7-0.151,1.981,0.852,3.469-1.193
			C261.037,41.109,258.82,40.101,258.202,41.986z"/>
		<path fill-rule="evenodd" clip-rule="evenodd" fill="#FFCD05" d="M256.725,43.832c0.711-0.091,1.9,1.018,3.558-0.893
			C259.623,43.199,257.502,42.006,256.725,43.832z"/>
		<path fill-rule="evenodd" clip-rule="evenodd" fill="#FFCD05" d="M255.186,45.312c0.718,0.023,1.716,1.306,3.656-0.317
			C258.147,45.147,256.243,43.632,255.186,45.312z"/>
		<path fill-rule="evenodd" clip-rule="evenodd" fill="#FFCD05" d="M253.431,46.67c0.714,0.056,1.653,1.382,3.664-0.15
			C256.396,46.64,254.563,45.041,253.431,46.67z"/>
		<path fill-rule="evenodd" clip-rule="evenodd" fill="#FFCD05" d="M251.507,47.591c0.675,0.24,1.237,1.766,3.577,0.807
			C254.379,48.334,253.022,46.312,251.507,47.591z"/>
		<path fill-rule="evenodd" clip-rule="evenodd" fill="#FFCD05" d="M249.468,48.169c0.621,0.36,0.891,1.963,3.368,1.456
			C252.153,49.431,251.196,47.193,249.468,48.169z"/>
	</g>
	<path fill-rule="evenodd" clip-rule="evenodd" fill="#FFCD05" d="M249.116,42.24c3.902,0,7.084-3.182,7.084-7.083
		c0-3.902-3.182-7.083-7.084-7.083c-3.902,0-7.083,3.182-7.083,7.083C242.033,39.059,245.214,42.24,249.116,42.24z"/>
	<g>
		<path fill-rule="evenodd" clip-rule="evenodd" fill="#FFCD05" d="M237.037,35.394c0.189-0.691,1.667-1.363,0.542-3.624
			C237.566,32.478,235.652,33.977,237.037,35.394z"/>
		<path fill-rule="evenodd" clip-rule="evenodd" fill="#FFCD05" d="M236.307,35.677c-0.572-0.433-2.155-0.063-2.641-2.544
			C234.107,33.687,236.541,33.707,236.307,35.677z"/>
		<path fill-rule="evenodd" clip-rule="evenodd" fill="#FFCD05" d="M236.055,33.416c0.256-0.467,1.024-1.956-0.273-3.399
			C234.959,30.606,234.299,32.412,236.055,33.416z"/>
		<path fill-rule="evenodd" clip-rule="evenodd" fill="#FFCD05" d="M238.159,37.667c0.171-0.697,1.633-1.403,0.452-3.637
			C238.616,34.738,236.739,36.283,238.159,37.667z"/>
		<path fill-rule="evenodd" clip-rule="evenodd" fill="#FFCD05" d="M239.214,39.794c0.172-0.696,1.631-1.407,0.446-3.637
			C239.666,36.865,237.792,38.414,239.214,39.794z"/>
		<path fill-rule="evenodd" clip-rule="evenodd" fill="#FFCD05" d="M240.505,41.614c0.163-0.699,1.615-1.425,0.405-3.643
			C240.924,38.679,239.067,40.248,240.505,41.614z"/>
		<path fill-rule="evenodd" clip-rule="evenodd" fill="#FFCD05" d="M241.875,43.48c0.153-0.701,1.593-1.45,0.348-3.647
			C242.249,40.541,240.416,42.138,241.875,43.48z"/>
		<path fill-rule="evenodd" clip-rule="evenodd" fill="#FFCD05" d="M243.601,45.07c0.053-0.715,1.375-1.657-0.163-3.661
			C243.562,42.106,241.97,43.943,243.601,45.07z"/>
		<path fill-rule="evenodd" clip-rule="evenodd" fill="#FFCD05" d="M245.199,46.271c0.054-0.716,1.375-1.657-0.163-3.662
			C245.16,43.307,243.568,45.143,245.199,46.271z"/>
		<path fill-rule="evenodd" clip-rule="evenodd" fill="#FFCD05" d="M247.003,47.301c0.022-0.717,1.301-1.716-0.322-3.65
			C246.833,44.342,245.324,46.247,247.003,47.301z"/>
		<path fill-rule="evenodd" clip-rule="evenodd" fill="#FFCD05" d="M248.831,47.894c-0.048-0.716,1.127-1.835-0.679-3.601
			C248.373,44.965,247.058,47.01,248.831,47.894z"/>
		<path fill-rule="evenodd" clip-rule="evenodd" fill="#FFCD05" d="M237.516,37.959c-0.623-0.357-2.145,0.212-2.946-2.185
			C235.079,36.266,237.496,35.974,237.516,37.959z"/>
		<path fill-rule="evenodd" clip-rule="evenodd" fill="#FFCD05" d="M238.803,40.042c-0.681-0.229-2.063,0.625-3.315-1.572
			C236.083,38.855,238.396,38.1,238.803,40.042z"/>
		<path fill-rule="evenodd" clip-rule="evenodd" fill="#FFCD05" d="M240.124,41.986c-0.702-0.151-1.981,0.852-3.469-1.193
			C237.289,41.109,239.503,40.101,240.124,41.986z"/>
		<path fill-rule="evenodd" clip-rule="evenodd" fill="#FFCD05" d="M241.602,43.832c-0.712-0.091-1.901,1.018-3.558-0.893
			C238.702,43.199,240.823,42.006,241.602,43.832z"/>
		<path fill-rule="evenodd" clip-rule="evenodd" fill="#FFCD05" d="M243.14,45.312c-0.716,0.023-1.715,1.306-3.655-0.317
			C240.177,45.147,242.083,43.632,243.14,45.312z"/>
		<path fill-rule="evenodd" clip-rule="evenodd" fill="#FFCD05" d="M244.896,46.67c-0.715,0.056-1.654,1.382-3.666-0.15
			C241.928,46.64,243.763,45.041,244.896,46.67z"/>
		<path fill-rule="evenodd" clip-rule="evenodd" fill="#FFCD05" d="M246.819,47.591c-0.676,0.24-1.238,1.766-3.578,0.807
			C243.947,48.334,245.302,46.312,246.819,47.591z"/>
		<path fill-rule="evenodd" clip-rule="evenodd" fill="#FFCD05" d="M248.858,48.169c-0.62,0.36-0.89,1.963-3.367,1.456
			C246.172,49.431,247.13,47.193,248.858,48.169z"/>
	</g>
	<path fill-rule="evenodd" clip-rule="evenodd" fill="#FEE430" d="M249.116,39.909c2.617,0,4.751-2.135,4.751-4.752
		c0-2.618-2.134-4.752-4.751-4.752c-2.618,0-4.753,2.134-4.753,4.752C244.363,37.774,246.498,39.909,249.116,39.909z"/>
</g>
<polygon fill-rule="evenodd" clip-rule="evenodd" fill="#5C5A4E" points="227.276,174.757 249.077,229.987 211.132,204.433 
	226.027,202.732 216.044,201.351 222.611,174.757 "/>
<g>
	<path fill-rule="evenodd" clip-rule="evenodd" fill="#5C5A4E" d="M195.736,179.257c8.597-3.235,19.81-4.089,28.35-4.652
		c0.234,1.693,0.469,3.386,0.702,5.078c-8.597,0.853-19.751,2.404-28.35,4.652C196.204,182.642,195.969,180.95,195.736,179.257z"/>
	<path fill-rule="evenodd" clip-rule="evenodd" fill="#5C5A4E" d="M302.579,179.257c-8.598-3.235-19.811-4.089-28.35-4.652
		c-0.234,1.693-0.469,3.386-0.703,5.078c8.598,0.853,19.752,2.404,28.35,4.652C302.11,182.642,302.345,180.95,302.579,179.257z"/>
</g>
<g>
	
		<ellipse transform="matrix(-0.9946 0.1041 -0.1041 -0.9946 454.0657 326.7571)" fill-rule="evenodd" clip-rule="evenodd" fill="#FFCD05" cx="218.509" cy="175.223" rx="2.752" ry="1.008"/>
	
		<ellipse transform="matrix(0.9946 0.1041 -0.1041 0.9946 19.7587 -28.1727)" fill-rule="evenodd" clip-rule="evenodd" fill="#FFCD05" cx="279.805" cy="175.223" rx="2.751" ry="1.008"/>
</g>
<polygon fill-rule="evenodd" clip-rule="evenodd" fill="#5C5A4E" points="270.877,174.757 249.077,229.987 287.021,204.433 
	272.127,202.732 282.108,201.351 275.543,174.757 "/>
<g>
	<path fill-rule="evenodd" clip-rule="evenodd" fill="#5C5A4E" d="M206.315,228.532h26.029v25.828c0,2.121-1.735,3.856-3.855,3.856
		H210.17c-2.121,0-3.855-1.735-3.855-3.856V228.532z"/>
	<rect x="218.487" y="231.827" fill-rule="evenodd" clip-rule="evenodd" fill="#535146" width="1.685" height="26.389"/>
	<path fill-rule="evenodd" clip-rule="evenodd" fill="#535146" d="M205.012,227.475c4.772,0,9.544,0,14.317,0
		c4.772,0,9.544,0,14.317,0c0,3.509,0,7.018,0,10.527c-4.772-1.285-9.545-1.335-14.317,0c-4.773-1.335-9.545-1.285-14.317,0
		C205.012,234.493,205.012,230.984,205.012,227.475z"/>
	<path fill-rule="evenodd" clip-rule="evenodd" fill="#FFCD05" d="M219.33,235.278c1.105,0,2.006-0.9,2.006-2.005
		c0-1.104-0.901-2.006-2.006-2.006s-2.006,0.902-2.006,2.006C217.324,234.378,218.225,235.278,219.33,235.278z"/>
</g>
<g>
	<path fill-rule="evenodd" clip-rule="evenodd" fill="#5C5A4E" d="M265.972,228.532H292v25.828c0,2.121-1.735,3.856-3.856,3.856
		h-18.316c-2.121,0-3.855-1.735-3.855-3.856V228.532z"/>
	<rect x="278.143" y="231.827" fill-rule="evenodd" clip-rule="evenodd" fill="#535146" width="1.686" height="26.389"/>
	<path fill-rule="evenodd" clip-rule="evenodd" fill="#535146" d="M264.668,227.475c4.773,0,9.545,0,14.317,0s9.544,0,14.316,0
		c0,3.509,0,7.018,0,10.527c-4.772-1.285-9.544-1.335-14.316,0c-4.772-1.335-9.544-1.285-14.317,0
		C264.668,234.493,264.668,230.984,264.668,227.475z"/>
	<path fill-rule="evenodd" clip-rule="evenodd" fill="#FFCD05" d="M278.985,235.278c1.104,0,2.007-0.9,2.007-2.005
		c0-1.104-0.902-2.006-2.007-2.006s-2.006,0.902-2.006,2.006C276.979,234.378,277.881,235.278,278.985,235.278z"/>
</g>
<rect x="267.029" y="220.718" fill-rule="evenodd" clip-rule="evenodd" fill="#FFCD05" width="23.459" height="3.462"/>
<g>
	<path fill-rule="evenodd" clip-rule="evenodd" fill="#535146" d="M200.16,286.326c4.773,0,9.545,0,14.317,0
		c4.772,0,9.545,0,14.317,0c0,3.51,0,12.268,0,15.775c-4.772-1.284-9.545-1.335-14.317,0c-4.772-1.335-9.544-1.284-14.317,0
		C200.16,298.594,200.16,289.836,200.16,286.326z"/>
	<path fill-rule="evenodd" clip-rule="evenodd" fill="#FFCD05" d="M214.479,299.379c1.105,0,2.006-0.901,2.006-2.006
		c0-1.105-0.901-2.006-2.006-2.006c-1.105,0-2.006,0.9-2.006,2.006C212.473,298.478,213.373,299.379,214.479,299.379z"/>
</g>
<g>
	<path fill-rule="evenodd" clip-rule="evenodd" fill="#535146" d="M269.928,286.326c4.771,0,9.544,0,14.315,0
		c4.772,0,9.546,0,14.317,0c0,3.51,0,12.268,0,15.775c-4.771-1.284-9.545-1.335-14.317,0c-4.771-1.335-9.544-1.284-14.315,0
		C269.928,298.594,269.928,289.836,269.928,286.326z"/>
	<path fill-rule="evenodd" clip-rule="evenodd" fill="#FFCD05" d="M284.245,299.379c1.104,0,2.004-0.901,2.004-2.006
		c0-1.105-0.899-2.006-2.004-2.006s-2.006,0.9-2.006,2.006C282.239,298.478,283.141,299.379,284.245,299.379z"/>
</g>
</svg>
